comic-neue-angular_regular.sfdir
StartChar: exclam
Encoding: 33 33 94
Width: 185
Flags: MW
HStem: 0 21G<54 54> 672 20G<115 115>
VStem: 61 54<159 159 159 682 682 682>
LayerCount: 2
Back
Fore
SplineSet
115 159 m 1
 61 148 l 1
 61 682 l 1
 115 692 l 1
 115 159 l 1
117 92 m 1
 110 10 l 1
 54 0 l 1
 61 82 l 1
 117 92 l 1
EndSplineSet
EndChar
StartChar: quotedbl
Encoding: 34 34 114
Width: 312
Flags: MW
HStem: 500 21G<69 69 189 189> 670 20G<123 123 243 243>
VStem: 69 54<510 510 510 680 680 680> 189 54<510 510 510 680 680 680>
LayerCount: 2
Back
Fore
SplineSet
123 510 m 1
 69 500 l 1
 69 680 l 1
 123 690 l 1
 123 510 l 1
243 510 m 1
 189 500 l 1
 189 680 l 1
 243 690 l 1
 243 510 l 1
EndSplineSet
EndChar
StartChar: numbersign
Encoding: 35 35 86
Width: 751
Flags: MW
HStem: 0 21G<144 144 354 354> 212 54<76 205 61 221 277 415 76 261 487 629> 431 53<116 268 100 284 116 324 340 478 550 674> 673 20G<400 400>
LayerCount: 2
Back
Fore
SplineSet
674 431 m 1
 534 431 l 1
 487 266 l 1
 645 266 l 1
 629 212 l 1
 471 212 l 1
 411 4 l 1
 354 0 l 1
 415 212 l 1
 261 212 l 1
 201 4 l 1
 144 0 l 1
 205 212 l 1
 61 212 l 1
 76 266 l 1
 221 266 l 1
 268 431 l 1
 100 431 l 1
 116 484 l 1
 284 484 l 1
 343 689 l 1
 400 693 l 1
 340 484 l 1
 494 484 l 1
 552 688 l 1
 609 692 l 1
 550 484 l 1
 689 484 l 1
 674 431 l 1
431 266 m 1
 478 431 l 1
 324 431 l 1
 277 266 l 1
 431 266 l 1
EndSplineSet
EndChar
StartChar: dollar
Encoding: 36 36 101
Width: 605
Flags: MW
HStem: -75 21G<284 284> 631 47 731 20G<337 337>
VStem: 100 64<486 530.5 486 569.5> 284 53<-65 0 0 0 55 322 399 628 628 628 681 741 741 741> 479 63<142.5 229>
LayerCount: 2
Back
Fore
SplineSet
337 383 m 1
 475 342 542 279 542 191 c 0
 542 81 445 13 337 1 c 1
 337 -65 l 1
 284 -75 l 1
 284 0 l 1
 178 8 92 67 64 152 c 1
 125 162 l 1
 149 95 218 61 284 54 c 1
 284 338 l 1
 194 366 100 418 100 510 c 0
 100 629 205 674 284 678 c 1
 284 741 l 1
 337 751 l 1
 337 681 l 1
 407 679 539 657 539 539 c 0
 539 533 539 527 538 521 c 1
 485 510 l 1
 486 517 486 526 486 533 c 0
 486 596 412 630 337 631 c 1
 337 383 l 1
164 510 m 0
 164 462 198 429 284 399 c 1
 284 628 l 1
 186 616 164 551 164 510 c 0
479 190 m 0
 479 268 409 297 337 322 c 1
 337 55 l 1
 385 63 479 95 479 190 c 0
EndSplineSet
EndChar
StartChar: percent
Encoding: 37 37 96
Width: 728
Flags: MW
HStem: -8 54<500.5 545.5 500.5 560.5> 0 21G<145 200 145 145> 210 54<500.5 545.5> 422 54<174.5 219.5 174.5 234.5> 640 54<174.5 219.5>
VStem: 61 54<535.5 580.5 535.5 595.5> 279 54<535.5 580.5> 387 54<105.5 150.5 105.5 165.5> 605 54<105.5 150.5>
LayerCount: 2
Back
Fore
SplineSet
197 422 m 0xbf80
 122 422 61 483 61 558 c 0
 61 633 122 694 197 694 c 0
 272 694 333 633 333 558 c 0
 333 483 272 422 197 422 c 0xbf80
523 -8 m 0
 448 -8 387 53 387 128 c 0
 387 203 448 264 523 264 c 0
 598 264 659 203 659 128 c 0
 659 53 598 -8 523 -8 c 0
525 689 m 1
 580 689 l 1
 200 0 l 1
 145 0 l 1x7f80
 525 689 l 1
197 640 m 0
 152 640 115 603 115 558 c 0
 115 513 152 476 197 476 c 0
 242 476 279 513 279 558 c 0
 279 603 242 640 197 640 c 0
523 210 m 0
 478 210 441 173 441 128 c 0
 441 83 478 46 523 46 c 0xbf80
 568 46 605 83 605 128 c 0
 605 173 568 210 523 210 c 0
EndSplineSet
EndChar
StartChar: ampersand
Encoding: 38 38 100
Width: 662
Flags: MW
HStem: -4 54<234 287.5 234 293> 637 53<273.5 318>
VStem: 61 54<136 226 136 239> 148 54<524 573 524 585.5> 389 53<531 572>
LayerCount: 2
Back
Fore
SplineSet
492 159 m 1
 596 34 l 1
 555 0 l 1
 462 110 l 1
 412 33 322 -4 264 -4 c 0
 167 -4 61 67 61 181 c 0
 61 297 142 346 224 390 c 1
 194 424 148 486 148 548 c 0
 148 623 219 690 295 690 c 0
 371 690 442 622 442 551 c 0
 442 447 367 413 310 376 c 1
 454 204 l 1
 470 238 484 281 494 333 c 1
 538 283 l 1
 525 233 510 193 492 159 c 1
202 548 m 0
 202 500 245 445 273 417 c 1
 384 474 389 511 389 551 c 0
 389 593 341 637 295 637 c 0
 252 637 202 598 202 548 c 0
264 50 m 0
 311 50 383 82 426 153 c 1
 262 350 l 1
 180 306 115 271 115 181 c 0
 115 91 204 50 264 50 c 0
EndSplineSet
EndChar
StartChar: quotesingle
Encoding: 39 39 113
Width: 192
Flags: MW
HStem: 500 21G<69 69> 670 20G<123 123>
VStem: 69 54<510 510 510 680 680 680>
LayerCount: 2
Back
Fore
SplineSet
123 510 m 1
 69 500 l 1
 69 680 l 1
 123 690 l 1
 123 510 l 1
EndSplineSet
EndChar
StartChar: parenleft
Encoding: 40 40 103
Width: 377
Flags: MW
HStem: -118 21G<258 258> 790 20G<280 280>
VStem: 65 54<274.5 433.5 274.5 436.5>
LayerCount: 2
Back
Fore
SplineSet
295 -79 m 1
 258 -118 l 1
 134 1 65 197 65 352 c 0
 65 521 147 699 280 810 c 1
 313 768 l 1
 202 672 119 515 119 352 c 0
 119 197 194 18 295 -79 c 1
EndSplineSet
EndChar
StartChar: parenright
Encoding: 41 41 102
Width: 377
Flags: MW
HStem: -118 21G<116 116> 790 20G<98 98>
VStem: 257 54<266 406 260 481.5>
LayerCount: 2
Back
Fore
SplineSet
61 771 m 1
 98 810 l 1
 265 668 311 472 311 340 c 0
 311 180 237 6 116 -118 c 1
 83 -76 l 1
 189 37 257 192 257 340 c 0
 257 623 63 765 61 771 c 1
EndSplineSet
EndChar
StartChar: asterisk
Encoding: 42 42 105
Width: 417
Flags: MW
HStem: 426 21G<126 126 288 288> 670 20G<179 233 233 233>
VStem: 179 54<637 690>
LayerCount: 2
Back
Fore
SplineSet
319 642 m 1
 344 594 l 1
 286 565 l 2
 271 557 242 551 239 551 c 1
 240 550 262 535 275 521 c 2
 328 462 l 1
 288 426 l 1
 234 487 l 2
 223 499 207 527 207 527 c 1
 207 527 191 499 180 486 c 2
 126 426 l 1
 86 462 l 1
 138 519 l 2
 149 532 172 549 172 549 c 1
 172 549 142 558 125 567 c 2
 71 594 l 1
 95 642 l 1
 147 616 l 2
 164 608 185 590 185 590 c 1
 185 590 179 621 179 637 c 2
 179 690 l 1
 233 690 l 1
 233 636 l 2
 233 618 228 589 228 589 c 1
 228 589 249 607 265 615 c 2
 319 642 l 1
EndSplineSet
EndChar
StartChar: plus
Encoding: 43 43 104
Width: 441
Flags: MW
HStem: 85 21G<193 193> 224 54<64 193 64 193 54 193 247 376> 393 20G<247 247>
VStem: 193 54<95 224 95 224 95 224 278 402 402 402>
LayerCount: 2
Back
Fore
SplineSet
387 278 m 1
 376 224 l 1
 247 224 l 1
 247 95 l 1
 193 85 l 1
 193 224 l 1
 54 224 l 1
 64 278 l 1
 193 278 l 1
 193 402 l 1
 247 413 l 1
 247 278 l 1
 387 278 l 1
EndSplineSet
EndChar
StartChar: comma
Encoding: 44 44 72
Width: 317
Flags: MW
HStem: -124 21G<139 139> 61 20G<163 163>
LayerCount: 2
Back
Fore
SplineSet
163 81 m 1
 233 42 l 1
 139 -124 l 1
 90 -96 l 1
 144 0 l 1
 105 22 l 1
 163 81 l 1
EndSplineSet
EndChar
StartChar: hyphen
Encoding: 45 45 112
Width: 442
Flags: MW
HStem: 223 54<81 363 71 373>
LayerCount: 2
Back
Fore
SplineSet
363 223 m 1
 71 223 l 1
 81 277 l 1
 373 277 l 1
 363 223 l 1
EndSplineSet
EndChar
StartChar: period
Encoding: 46 46 107
Width: 222
Flags: MW
HStem: 0 21G<69 69> 72 20G<151 151>
LayerCount: 2
Back
Fore
SplineSet
151 92 m 1
 143 10 l 1
 69 0 l 1
 78 82 l 1
 151 92 l 1
EndSplineSet
EndChar
StartChar: one
Encoding: 49 49 55
Width: 414
Flags: MW
HStem: 0 54<85 196 250 338 75 196> 661 20G<260 260>
VStem: 200 55
LayerCount: 2
Back
Fore
SplineSet
250 54 m 1
 348 54 l 1
 338 0 l 1
 75 0 l 1
 85 54 l 1
 196 54 l 1
 205 559 l 1
 97 462 l 1
 61 502 l 1
 260 681 l 1
 250 54 l 1
EndSplineSet
EndChar
StartChar: two
Encoding: 50 50 56
Width: 524
Flags: MW
HStem: 0 54<119 453> 620 54<216 292>
VStem: 65 54<0 54 54 54 54 104.5> 399 54<480 543>
LayerCount: 2
Back
Fore
SplineSet
119 54 m 1
 463 54 l 1
 453 0 l 1
 65 0 l 1
 65 27 l 2
 65 182 125 241 237 317 c 0
 351 393 399 450 399 510 c 0
 399 591 319 620 265 620 c 0
 167 620 108 537 100 524 c 1
 63 566 l 1
 88 599 156 674 265 674 c 0
 410 674 453 576 453 510 c 0
 453 410 359 333 267 272 c 0
 173 209 126 167 119 54 c 1
EndSplineSet
EndChar
StartChar: three
Encoding: 51 51 57
Width: 549
Flags: MW
HStem: -4 54<237.5 274.5 237.5 314> 352 54<220 276> 629 54<231 311>
VStem: 407 57<501 557.5> 424 56<128.5 249.5 127.5 260>
LayerCount: 2
Back
Fore
SplineSet
356 385 m 1xf0
 431 355 480 296 480 203 c 0
 480 52 354 -4 274 -4 c 0
 188 -4 97 39 67 132 c 1
 119 154 l 1
 137 88 201 50 274 50 c 0
 275 50 424 54 424 203 c 0xe8
 424 317 329 352 223 352 c 1
 220 406 l 1
 338 413 407 467 407 535 c 0
 407 580 354 629 268 629 c 0
 194 629 140 580 128 569 c 1
 91 609 l 1
 112 629 177 683 268 683 c 0
 378 683 464 618 464 535 c 0
 464 459 414 412 356 385 c 1xf0
EndSplineSet
EndChar
StartChar: four
Encoding: 52 52 58
Width: 518
Flags: MW
HStem: 0 21G<344 344> 170 50 664 20G<396 396>
VStem: 344 52<10 10 10 166 219 521 521 521>
LayerCount: 2
Back
Fore
SplineSet
396 10 m 1
 344 0 l 1
 344 167 l 1
 38 173 l 1
 396 684 l 1
 396 218 l 1
 463 217 l 1
 452 165 l 1
 396 166 l 1
 396 10 l 1
135 222 m 1
 344 219 l 1
 344 521 l 1
 135 222 l 1
EndSplineSet
EndChar
StartChar: five
Encoding: 53 53 59
Width: 562
Flags: MW
HStem: 0 53<237 263 237 332.5> 431 53<264 331.5> 619 53<174 466 174 174>
VStem: 446 52<260 260>
LayerCount: 2
Back
Fore
SplineSet
263 0 m 0
 210 0 118 24 67 131 c 1
 115 152 l 1
 145 85 211 53 263 53 c 0
 376 52 445 153 446 260 c 0
 447 371 368 431 295 431 c 0
 232 431 173 394 145 348 c 1
 96 364 l 1
 127 672 l 1
 476 672 l 1
 466 619 l 1
 174 619 l 1
 156 437 l 1
 188 462 233 484 295 484 c 0
 422 484 497 370 498 260 c 0
 499 114 402 0 263 0 c 0
EndSplineSet
EndChar
StartChar: six
Encoding: 54 54 60
Width: 546
Flags: MW
HStem: -5 53<241 300 241 306> 389 53<257.5 299 257.5 305.5> 664 20G<352 352>
VStem: 61 52<177.5 257.5 163.5 346> 428 52<161.5 309>
LayerCount: 2
Back
Fore
SplineSet
352 684 m 1
 369 634 l 1
 275 596 175 503 139 400 c 1
 176 422 226 442 289 442 c 0
 309 442 480 436 480 240 c 0
 480 36 333 -5 279 -5 c 0
 128 -5 61 110 61 245 c 0
 61 447 174 608 352 684 c 1
118 318 m 1
 114 295 113 270 113 245 c 0
 113 82 203 48 279 48 c 0
 321 48 428 83 428 240 c 0
 428 378 322 389 289 389 c 0
 196 389 137 337 118 318 c 1
EndSplineSet
EndChar
StartChar: seven
Encoding: 55 55 61
Width: 501
Flags: MW
HStem: 0 21G<154 154> 621 54<74 410 74 74>
LayerCount: 2
Back
Fore
SplineSet
154 0 m 1
 107 25 l 1
 410 621 l 1
 74 621 l 1
 64 675 l 1
 496 675 l 1
 154 0 l 1
EndSplineSet
EndChar
StartChar: eight
Encoding: 56 56 62
Width: 547
Flags: MW
HStem: -3 55<230 307.5 230 331.5> 630 56<244 317>
VStem: 66 55<137.5 179> 99 22 99 54<486.5 546 486.5 565.5> 406 55<526 562.5> 424 54<140 228>
LayerCount: 2
Back
Fore
SplineSet
272 -3 m 0xe2
 152 -3 66 74 66 179 c 0xe2
 69 284 140 336 205 368 c 1
 149 393 99 434 99 510 c 0
 99 621 180 686 283 686 c 0
 387 686 461 620 461 526 c 0xd4
 458 444 407 403 352 375 c 1
 431 335 478 268 478 189 c 0
 478 79 391 -3 272 -3 c 0xe2
282 343 m 1
 211 314 121 273 121 173 c 0
 121 102 188 52 272 52 c 0
 343 52 424 94 424 186 c 0
 424 270 353 321 282 343 c 1
278 401 m 1
 355 436 406 463 406 532 c 0
 406 593 351 630 283 630 c 0
 205 630 153 578 153 514 c 0xcc
 153 459 189 426 278 401 c 1
EndSplineSet
EndChar
StartChar: nine
Encoding: 57 57 63
Width: 546
Flags: MW
HStem: -3 21G<189 189> 239 53<241.5 283> 633 53<240.5 299>
VStem: 61 52<372 515> 428 52<423.5 504.5 320.5 517.5>
LayerCount: 2
Back
Fore
SplineSet
189 -3 m 1
 172 47 l 1
 276 89 362 178 401 281 c 1
 365 259 315 239 251 239 c 0
 232 239 61 245 61 441 c 0
 61 589 154 686 264 686 c 0
 414 686 480 573 480 436 c 0
 480 205 329 49 189 -3 c 1
423 363 m 1
 426 386 428 411 428 436 c 0
 428 599 337 633 261 633 c 0
 220 633 113 598 113 441 c 0
 113 303 219 292 251 292 c 0
 344 292 404 344 423 363 c 1
EndSplineSet
EndChar
StartChar: colon
Encoding: 58 58 71
Width: 250
Flags: MW
HStem: 0 21G<69 69> 425 20G<179 179>
LayerCount: 2
Back
Fore
SplineSet
179 445 m 1
 170 363 l 1
 96 353 l 1
 105 435 l 1
 179 445 l 1
151 92 m 1
 143 10 l 1
 69 0 l 1
 78 82 l 1
 151 92 l 1
EndSplineSet
EndChar
StartChar: semicolon
Encoding: 59 59 111
Width: 332
Flags: MW
HStem: -124 21G<139 139> 427 20G<248 248>
LayerCount: 2
Back
Fore
SplineSet
248 447 m 1
 239 365 l 1
 165 355 l 1
 174 437 l 1
 248 447 l 1
162 80 m 1
 233 41 l 1
 139 -124 l 1
 90 -96 l 1
 144 0 l 1
 105 22 l 1
 162 80 l 1
EndSplineSet
EndChar
StartChar: less
Encoding: 60 60 109
Width: 568
Flags: MW
HStem: -2 21G<447 447> 484 20G<465 465>
LayerCount: 2
Back
Fore
SplineSet
447 -2 m 1
 72 251 l 1
 465 504 l 1
 494 459 l 1
 170 250 l 1
 477 43 l 1
 447 -2 l 1
EndSplineSet
EndChar
StartChar: equal
Encoding: 61 61 90
Width: 505
Flags: MW
HStem: 146 53<87 420 77 430> 299 54<87 420 77 430>
LayerCount: 2
Back
Fore
SplineSet
420 299 m 1
 77 299 l 1
 87 353 l 1
 430 353 l 1
 420 299 l 1
420 146 m 1
 77 146 l 1
 87 199 l 1
 430 199 l 1
 420 146 l 1
EndSplineSet
EndChar
StartChar: greater
Encoding: 62 62 65
Width: 568
Flags: MW
HStem: -2 21G<105 105> 484 20G<123 123>
LayerCount: 2
Back
Fore
SplineSet
105 -2 m 1
 76 43 l 1
 400 252 l 1
 93 460 l 1
 123 504 l 1
 498 251 l 1
 105 -2 l 1
EndSplineSet
EndChar
StartChar: question
Encoding: 63 63 108
Width: 542
Flags: MW
HStem: 0 21G<150 150> 659 54<206.5 316>
VStem: 422 53<465.5 543.5>
LayerCount: 2
Back
Fore
SplineSet
254 713 m 0
 386 713 475 630 475 507 c 0
 475 397 391 334 341 289 c 2
 193 157 l 1
 166 205 l 1
 308 332 l 2
 355 374 422 424 422 507 c 0
 422 580 378 659 254 659 c 0
 159 659 105 572 99 561 c 1
 60 600 l 1
 82 633 147 713 254 713 c 0
213 92 m 1
 206 10 l 1
 150 0 l 1
 157 82 l 1
 213 92 l 1
EndSplineSet
EndChar
StartChar: at
Encoding: 64 64 85
Width: 828
Flags: MW
HStem: -95 53<359 471 359 496> 94 54<605 642 576 656> 108 53<332 373.5> 375 53<370.5 415.5> 563 54<354 523>
VStem: 68 54<157 354 156 356.5> 234 53<211.5 271.5 211.5 286.5> 711 54<247 354>
LayerCount: 2
Back
Fore
SplineSet
422 -42 m 0xdf
 520 -42 590 2 620 24 c 1
 673 -1 l 1
 663 -10 570 -95 422 -95 c 0
 229 -95 68 62 68 252 c 0
 68 461 224 617 431 617 c 0
 618 617 765 474 765 285 c 0
 765 180 707 94 605 94 c 0xdf
 546 95 483 129 466 179 c 1
 438 142 398 108 349 108 c 0
 281 108 234 155 234 237 c 0
 234 336 306 428 404 428 c 0
 438 428 473 417 505 393 c 1
 473 350 l 1
 450 366 427 375 404 375 c 0
 337 375 287 306 287 237 c 0
 287 186 315 161 349 161 c 0xbf
 404 161 454 255 468 288 c 1
 518 270 l 1
 513 254 511 240 511 227 c 0
 511 183 546 148 606 148 c 0
 678 148 711 209 711 285 c 0
 711 423 615 563 431 563 c 0
 277 563 122 456 122 252 c 0
 122 60 296 -42 422 -42 c 0xdf
EndSplineSet
EndChar
StartChar: A
Encoding: 65 65 1
Width: 623
Flags: MW
HStem: 0 21G<99 99> 660 20G<360 360>
LayerCount: 2
Back
Fore
SplineSet
360 680 m 1
 573 33 l 1
 526 1 l 1
 440 261 l 1
 176 206 l 1
 99 0 l 1
 50 26 l 1
 112 192 l 1
 71 184 l 1
 60 238 l 1
 135 253 l 1
 290 667 l 1
 360 680 l 1
199 267 m 1
 423 313 l 1
 326 607 l 1
 199 267 l 1
EndSplineSet
EndChar
StartChar: B
Encoding: 66 66 28
Width: 602
Flags: MW
HStem: 0 54<119 119 119 132> 332 37 332 53<119 259 119 259 259 298 119 303> 627 54<119 119 119 276>
VStem: 65 54<54 332 54 385 385 627> 438 54<474.5 532.5> 498 54<135 253 111.5 257.5>
LayerCount: 2
Back
Fore
SplineSet
65 0 m 1xde
 65 681 l 1
 276 681 l 2
 411 681 492 614 492 504 c 0
 492 445 458 396 391 369 c 1
 455 364 552 303 552 203 c 0
 552 20 258 0 132 0 c 2
 65 0 l 1xde
119 332 m 1
 119 54 l 1
 203 50 498 67 498 203 c 0
 498 312 375 332 303 332 c 2
 119 332 l 1
119 627 m 1
 119 385 l 1
 259 385 l 2xbe
 337 385 438 409 438 504 c 0
 438 561 410 627 276 627 c 2
 119 627 l 1
EndSplineSet
EndChar
StartChar: C
Encoding: 67 67 29
Width: 631
Flags: MW
HStem: -1 53<270 381 270 386> 628 53<274.5 374 257.5 380.5>
VStem: 51 52<227 359.5 227 371.5>
LayerCount: 2
Back
Fore
SplineSet
334 -1 m 0
 180 -1 51 125 51 291 c 0
 51 452 169 681 346 681 c 0
 402 681 453 665 493 635 c 1
 493 658 l 1
 539 658 l 1
 539 539 l 1
 493 539 l 1
 493 564 l 1
 466 594 421 628 340 628 c 0
 209 628 103 426 103 293 c 0
 103 161 206 52 334 52 c 0
 428 52 503 94 542 170 c 1
 581 131 l 1
 531 49 438 -1 334 -1 c 0
EndSplineSet
EndChar
StartChar: D
Encoding: 68 68 30
Width: 616
Flags: MW
HStem: -15 54<188.5 234.5 188.5 318.5> 660 20G<65 91 91 150>
VStem: 65 54<45 627 45 680 45 680> 502 54<251 366.5>
LayerCount: 2
Back
Fore
SplineSet
65 1 m 1
 65 680 l 1
 91 680 l 2
 209 680 295 657 355 628 c 0
 486 566 556 453 556 301 c 0
 556 99 430 -15 207 -15 c 0
 169 -15 105 -10 65 1 c 1
119 627 m 1
 119 45 l 1
 138 42 170 39 207 39 c 0
 262 39 341 47 402 86 c 0
 468 129 502 201 502 301 c 0
 502 432 445 525 331 579 c 0
 250 617 160 626 119 627 c 1
EndSplineSet
EndChar
StartChar: E
Encoding: 69 69 31
Width: 611
Flags: MW
HStem: 0 56<121 531> 326 56<121 489 121 506> 625 56<121 536 121 121>
VStem: 65 56<56 56 56 326 382 625>
LayerCount: 2
Back
Fore
SplineSet
121 56 m 1
 551 56 l 1
 531 0 l 1
 65 0 l 1
 65 681 l 1
 546 681 l 1
 536 625 l 1
 121 625 l 1
 121 382 l 1
 506 382 l 1
 489 326 l 1
 121 326 l 1
 121 56 l 1
EndSplineSet
EndChar
StartChar: F
Encoding: 70 70 52
Width: 505
Flags: MW
HStem: 0 21G<60 60> 317 57<116 444 116 454> 625 56<116 495 116 116>
VStem: 60 56<10 317 374 625>
LayerCount: 2
Back
Fore
SplineSet
495 625 m 1
 116 625 l 1
 116 374 l 1
 454 374 l 1
 444 317 l 1
 116 317 l 1
 116 10 l 1
 60 0 l 1
 60 681 l 1
 505 681 l 1
 495 625 l 1
EndSplineSet
EndChar
StartChar: G
Encoding: 71 71 32
Width: 744
Flags: MW
HStem: -2 54<276 418.5 276 471> 236 53<541 569.5> 629 53<283 435.5>
VStem: 60 54<270 389.5 270 420.5>
LayerCount: 2
Back
Fore
SplineSet
647 230 m 1
 637 182 587 -2 355 -2 c 0
 182 -2 60 149 60 341 c 0
 60 500 186 682 374 682 c 0
 525 682 620 598 650 477 c 1
 597 466 l 1
 572 565 497 629 374 629 c 0
 192 629 114 438 114 341 c 0
 114 199 197 52 355 52 c 0
 482 52 564 120 594 235 c 1
 584 236 572 236 567 236 c 0
 507 236 443 224 406 208 c 1
 406 266 l 1
 452 281 512 289 570 289 c 0
 611 289 651 285 684 277 c 1
 684 221 l 1
 675 224 660 229 647 230 c 1
EndSplineSet
EndChar
StartChar: H
Encoding: 72 72 33
Width: 683
Flags: MW
HStem: 0 21G<65 65 562 562> 661 20G<121 121 618 618>
VStem: 65 56<20 287 344 671 671 671> 562 56<20 349 349 349 406 671 671 671>
LayerCount: 2
Back
Fore
SplineSet
562 671 m 1
 618 681 l 1
 618 20 l 1
 562 0 l 1
 562 349 l 1
 121 287 l 1
 121 20 l 1
 65 0 l 1
 65 671 l 1
 121 681 l 1
 121 344 l 1
 562 406 l 1
 562 671 l 1
EndSplineSet
EndChar
StartChar: I
Encoding: 73 73 34
Width: 437
Flags: MW
HStem: 0 56<70 193 249 367 60 193> 625 56<70 193 60 377 249 367 249 249>
VStem: 193 56<56 625 56 625>
LayerCount: 2
Back
Fore
SplineSet
367 625 m 1
 249 625 l 1
 249 56 l 1
 377 56 l 1
 367 0 l 1
 60 0 l 1
 70 56 l 1
 193 56 l 1
 193 625 l 1
 60 625 l 1
 70 681 l 1
 377 681 l 1
 367 625 l 1
EndSplineSet
EndChar
StartChar: J
Encoding: 74 74 35
Width: 469
Flags: MW
HStem: 1 51<189 260 189 275.5> 622 57<188 342 188 449 398 449 398 398>
VStem: 50 56<162 197 197 197> 342 56<162 622>
LayerCount: 2
Back
Fore
SplineSet
188 679 m 1
 449 679 l 1
 449 622 l 1
 398 622 l 1
 398 162 l 2
 398 67 327 1 224 1 c 0
 123 1 50 69 50 162 c 2
 50 197 l 1
 106 207 l 1
 106 162 l 2
 106 99 154 52 224 52 c 0
 296 52 342 98 342 162 c 2
 342 622 l 1
 188 622 l 1
 188 679 l 1
EndSplineSet
EndChar
StartChar: K
Encoding: 75 75 36
Width: 577
Flags: MW
HStem: 0 21G<65 65 494 494> 661 20G<119 119>
VStem: 65 54<10 285 388 671 671 671>
LayerCount: 2
Back
Fore
SplineSet
527 43 m 1
 494 0 l 1
 119 285 l 1
 119 10 l 1
 65 0 l 1
 65 671 l 1
 119 681 l 1
 119 388 l 1
 466 680 l 1
 501 639 l 1
 140 336 l 1
 527 43 l 1
EndSplineSet
EndChar
StartChar: L
Encoding: 76 76 37
Width: 487
Flags: MW
HStem: 0 21G<65 65> 14 58 658 20G<121 121>
VStem: 65 56<60 668 668 668>
LayerCount: 2
Back
Fore
SplineSet
65 0 m 1
 65 668 l 1
 121 678 l 1
 121 60 l 1
 462 85 l 1
 466 29 l 1
 65 0 l 1
EndSplineSet
EndChar
StartChar: M
Encoding: 77 77 38
Width: 865
Flags: MW
HStem: 0 21G<50 50 380 380 758 758> 661 20G<243 243 669 669>
LayerCount: 2
Back
Fore
SplineSet
221 557 m 1
 106 10 l 1
 50 0 l 1
 190 671 l 1
 243 681 l 1
 418 65 l 1
 612 671 l 1
 669 681 l 1
 815 10 l 1
 758 0 l 1
 636 573 l 1
 456 10 l 1
 380 0 l 1
 221 557 l 1
EndSplineSet
EndChar
StartChar: O
Encoding: 79 79 40
Width: 660
Flags: MW
HStem: -2 52<252 370.5 252 387> 630 52<282.5 403.5>
VStem: 60 53<241 401 241 413> 547 53<278 430.5>
LayerCount: 2
Back
Fore
SplineSet
309 -2 m 0
 164 -2 60 143 60 313 c 0
 60 513 195 682 351 682 c 0
 495 682 600 539 600 367 c 0
 600 167 465 -2 309 -2 c 0
344 630 m 0
 221 630 113 489 113 313 c 0
 113 169 195 50 309 50 c 0
 432 50 547 193 547 363 c 0
 547 498 463 630 344 630 c 0
EndSplineSet
EndChar
StartChar: P
Encoding: 80 80 41
Width: 545
Flags: MW
HStem: 0 21G<65 65> 238 55<120 120> 623 56<120 246.5 160 166>
VStem: 65 55<10 238 293 623> 459 56<419 508.5>
LayerCount: 2
Back
Fore
SplineSet
120 238 m 1
 120 10 l 1
 65 0 l 1
 65 674 l 1
 88 676 143 679 177 679 c 0
 316 679 515 651 515 472 c 0
 515 307 294 244 120 238 c 1
120 623 m 1
 120 293 l 1
 332 302 459 372 459 466 c 0
 459 551 398 623 166 623 c 2
 120 623 l 1
EndSplineSet
EndChar
StartChar: Q
Encoding: 81 81 42
Width: 721
Flags: MW
HStem: -35 21G<647 647> -1 53<269.5 355.5 269.5 364> 625 54<302.5 439>
VStem: 51 61<239 398 239 411.5> 602 60<313.5 426.5>
LayerCount: 2
Back
Fore
SplineSet
548 92 m 1
 671 12 l 1
 647 -35 l 1
 506 57 l 1
 455 20 395 -1 333 -1 c 0
 171 -1 51 140 51 312 c 0
 51 511 204 679 380 679 c 0
 543 679 662 536 662 366 c 0
 662 258 618 160 548 92 c 1
503 126 m 1
 560 182 602 268 602 359 c 0
 602 494 506 625 372 625 c 0
 233 625 112 484 112 312 c 0
 112 166 206 52 333 52 c 0
 378 52 422 67 460 92 c 1
 347 163 l 1
 397 193 l 1
 503 126 l 1
EndSplineSet
EndChar
StartChar: S
Encoding: 83 83 44
Width: 599
Flags: MW
HStem: -1 53<268 351 268 355.5> 631 50<278.5 358>
VStem: 96 64<480 533.5 480 578> 483 55
LayerCount: 2
Back
Fore
SplineSet
160 505 m 0
 160 455 214 416 319 387 c 0
 466 346 538 282 538 190 c 0
 538 60 406 -1 305 -1 c 0
 187 -1 90 60 60 152 c 1
 121 162 l 1
 148 86 232 52 304 52 c 0
 398 52 475 105 475 197 c 0
 475 228 464 287 306 330 c 0
 209 356 96 410 96 507 c 0
 96 649 228 681 329 681 c 0
 419 681 535 649 535 539 c 0
 535 533 535 527 534 521 c 1
 482 510 l 1
 483 515 483 522 483 526 c 0
 483 609 387 631 329 631 c 0
 187 631 160 562 160 505 c 0
EndSplineSet
EndChar
StartChar: W
Encoding: 87 87 48
Width: 878
Flags: MW
HStem: 0 21G<207 207 580 580> 661 20G<64 64 464 464>
LayerCount: 2
Back
Fore
SplineSet
868 680 m 1
 640 11 l 1
 580 0 l 1
 435 579 l 1
 265 11 l 1
 207 0 l 1
 10 671 l 1
 64 681 l 1
 235 100 l 1
 405 670 l 1
 464 681 l 1
 611 92 l 1
 807 669 l 1
 868 680 l 1
EndSplineSet
EndChar
StartChar: X
Encoding: 88 88 49
Width: 646
Flags: MW
HStem: -4 21G<92 92 521 521> 665 20G<115 115 529 529>
LayerCount: 2
Back
Fore
SplineSet
566 27 m 1
 521 -4 l 1
 313 297 l 1
 92 -4 l 1
 47 29 l 1
 280 346 l 1
 69 653 l 1
 115 685 l 1
 314 393 l 1
 529 685 l 1
 574 652 l 1
 347 345 l 1
 566 27 l 1
EndSplineSet
EndChar
StartChar: Z
Encoding: 90 90 51
Width: 621
Flags: MW
HStem: 0 61<73 562 118 551> 620 61<90 501 79 546>
LayerCount: 2
Back
Fore
SplineSet
73 0 m 1
 48 55 l 1
 501 620 l 1
 79 620 l 1
 90 681 l 1
 546 681 l 1
 571 626 l 1
 118 61 l 1
 562 61 l 1
 551 0 l 1
 73 0 l 1
EndSplineSet
EndChar
StartChar: bracketleft
Encoding: 91 91 77
Width: 315
Flags: MW
HStem: -124 54<120 234> 751 54<120 249 120 120>
VStem: 66 54<-70 751 -70 805>
LayerCount: 2
Back
Fore
SplineSet
234 -124 m 1
 66 -124 l 1
 66 805 l 1
 259 805 l 1
 249 751 l 1
 120 751 l 1
 120 -70 l 1
 244 -70 l 1
 234 -124 l 1
EndSplineSet
EndChar
StartChar: backslash
Encoding: 92 92 81
Width: 492
Flags: MW
HStem: 0 21G<406 468 406 406> 673 20G<26 87 87 87>
LayerCount: 2
Back
Fore
SplineSet
87 693 m 1
 468 0 l 1
 406 0 l 1
 26 693 l 1
 87 693 l 1
EndSplineSet
EndChar
StartChar: bracketright
Encoding: 93 93 76
Width: 315
Flags: MW
HStem: -124 54<71 200 71 254 61 200> 751 54<87 200 76 254>
VStem: 200 54<-70 751 751 751>
LayerCount: 2
Back
Fore
SplineSet
87 805 m 1
 254 805 l 1
 254 -124 l 1
 61 -124 l 1
 71 -70 l 1
 200 -70 l 1
 200 751 l 1
 76 751 l 1
 87 805 l 1
EndSplineSet
EndChar
StartChar: asciicircum
Encoding: 94 94 127
Width: 500
Flags: MW
HStem: 718 21G<143 143> 861 20G<260 260>
LayerCount: 2
Back
Fore
SplineSet
143 718 m 1
 110 760 l 1
 260 881 l 1
 389 759 l 1
 353 719 l 1
 257 806 l 1
 143 718 l 1
EndSplineSet
EndChar
StartChar: underscore
Encoding: 95 95 95
Width: 476
Flags: MW
HStem: -54 54<-2 478 -12 488>
LayerCount: 2
Back
Fore
SplineSet
478 -54 m 1
 -12 -54 l 1
 -2 0 l 1
 488 0 l 1
 478 -54 l 1
EndSplineSet
EndChar
StartChar: grave
Encoding: 96 96 128
Width: 500
Flags: MW
HStem: 726 21G<297 297> 880 20G<217 217>
LayerCount: 2
Back
Fore
SplineSet
343 754 m 1
 297 726 l 1
 157 866 l 1
 217 900 l 1
 343 754 l 1
EndSplineSet
EndChar
StartChar: b
Encoding: 98 98 4
Width: 528
Flags: MW
HStem: 0 21G<121 121> 1 54<233 314 222.5 366.5> 434 56<274.5 354> 672 20G<121 121>
VStem: 65 56<10 29 0 82 82 291 409 681 681 681> 425 53<241.5 298.5>
LayerCount: 2
Back
Fore
SplineSet
320 490 m 0xbc
 430 490 478 372 478 268 c 0
 478 215 474 1 259 1 c 0x7c
 207 1 152 16 121 29 c 1
 121 0 l 1
 65 10 l 1
 65 681 l 1
 121 692 l 1
 121 409 l 1
 156 459 229 490 320 490 c 0xbc
251 55 m 0
 377 55 425 147 425 268 c 0
 425 329 401 434 307 434 c 0
 200 434 121 370 121 291 c 2
 121 82 l 1
 139 73 194 55 251 55 c 0
EndSplineSet
EndChar
StartChar: c
Encoding: 99 99 5
Width: 507
Flags: MW
HStem: 0 52 450 52<226.5 299>
VStem: 51 53<154 263.5 148 272.5>
LayerCount: 2
Back
Fore
SplineSet
277 52 m 0
 339 55 391 88 417 137 c 1
 457 97 l 1
 420 41 355 3 279 0 c 0
 160 -6 51 92 51 216 c 0
 51 329 138 502 274 502 c 0
 338 502 391 477 426 430 c 1
 386 391 l 1
 363 429 322 450 276 450 c 0
 177 450 104 309 104 218 c 0
 104 78 229 50 277 52 c 0
EndSplineSet
EndChar
StartChar: f
Encoding: 102 102 8
Width: 332
Flags: MW
HStem: 0 21G<95 95> 451 51<19 95 19 95 10 95 156 275> 640 53<299 322>
VStem: 95 56<10 451 10 451 10 451 10 577.5>
LayerCount: 2
Back
Fore
SplineSet
322 693 m 1
 299 640 l 1
 180 643 156 604 156 502 c 1
 287 502 l 1
 275 451 l 1
 151 451 l 1
 151 10 l 1
 95 0 l 1
 95 451 l 1
 10 451 l 1
 19 502 l 1
 95 502 l 1
 95 653 166 701 322 693 c 1
EndSplineSet
EndChar
StartChar: g
Encoding: 103 103 9
Width: 522
Flags: MW
HStem: -185 56<222.5 306.5> 0 53<193 244 193 278> 446 55<237 311.5 216 313> 488 20G<457 457>
VStem: 51 49<202 292.5 202 301.5> 391 60
LayerCount: 2
Back
Fore
SplineSet
457 508 m 1xdc
 446 19 l 2
 443 -112 369 -185 244 -185 c 0
 196 -185 148 -178 117 -171 c 1
 129 -116 l 1
 157 -122 201 -129 244 -129 c 0
 375 -129 389 -25 390 18 c 2
 392 79 l 1
 356 31 307 0 249 0 c 0
 135 0 51 100 51 237 c 0
 51 366 144 501 288 501 c 0xec
 335 501 374 484 400 469 c 1
 400 499 l 1
 457 508 l 1xdc
396 413 m 1xdc
 372 431 333 446 293 446 c 0xec
 181 446 100 348 100 237 c 0
 100 167 142 53 244 53 c 0
 314 54 396 105 396 268 c 2
 396 413 l 1xdc
EndSplineSet
EndChar
StartChar: h
Encoding: 104 104 3
Width: 504
Flags: MW
HStem: 0 21G<65 65 397 397> 451 54<277 350.5> 672 20G<121 121>
VStem: 65 56<10 196 336 681 681 681> 399 54<110 236.5>
LayerCount: 2
Back
Fore
SplineSet
121 196 m 2
 121 10 l 1
 65 0 l 1
 65 681 l 1
 121 692 l 1
 121 336 l 1
 157 416 235 505 319 505 c 0
 424 505 453 382 453 142 c 0
 453 78 452 28 451 10 c 1
 397 0 l 1
 398 14 399 69 399 136 c 0
 399 337 382 451 319 451 c 0
 233 451 152 319 136 285 c 0
 124 260 121 230 121 196 c 2
EndSplineSet
EndChar
StartChar: i
Encoding: 105 105 10
Width: 193
Flags: MW
HStem: 0 21G<65 65> 669 20G<128 128>
VStem: 65 59<10 491 491 491>
LayerCount: 2
Back
Fore
SplineSet
65 491 m 1
 124 500 l 1
 124 10 l 1
 65 0 l 1
 65 491 l 1
128 689 m 1
 122 607 l 1
 65 597 l 1
 72 679 l 1
 128 689 l 1
EndSplineSet
EndChar
StartChar: j
Encoding: 106 106 11
Width: 313
Flags: MW
HStem: -180 51<102 148.5 102 173> 677 20G<247 247>
VStem: 184 57<502 513>
LayerCount: 2
Back
Fore
SplineSet
247 697 m 1
 240 615 l 1
 184 605 l 1
 190 687 l 1
 247 697 l 1
-40 -10 m 1
 16 2 l 1
 33 -38 78 -129 126 -129 c 0
 171 -129 191 -73 191 -5 c 0
 191 12 188 239 184 502 c 1
 241 513 l 1
 245 247 248 17 248 0 c 0
 248 -72 220 -180 126 -180 c 0
 27 -180 -33 -27 -40 -10 c 1
EndSplineSet
EndChar
StartChar: k
Encoding: 107 107 12
Width: 494
Flags: MW
HStem: 0 21G<67 67 421 421> 672 20G<122 122>
VStem: 66 56
LayerCount: 2
Back
Fore
SplineSet
258 298 m 1
 266 290 359 173 464 37 c 1
 421 0 l 1
 351 107 262 214 216 264 c 1
 177 235 146 214 123 201 c 1
 124 10 l 1
 67 0 l 1
 65 681 l 1
 122 692 l 1
 123 254 l 1
 180 291 326 432 404 534 c 1
 448 502 l 1
 404 445 303 334 258 298 c 1
EndSplineSet
EndChar
StartChar: l
Encoding: 108 108 13
Width: 226
Flags: MW
HStem: 0 21G<85 85> 672 20G<141 141>
VStem: 85 56<10 681 681 681>
LayerCount: 2
Back
Fore
SplineSet
85 681 m 1
 141 692 l 1
 141 10 l 1
 85 0 l 1
 85 681 l 1
EndSplineSet
EndChar
StartChar: m
Encoding: 109 109 14
Width: 817
Flags: MW
HStem: 0 21G<65 65 393 393 695 695> 462 49<292 330 588 632>
VStem: 65 56<10 264 362 482 482 482> 393 56<10 282 10 333 10 391> 695 57<10 326 10 333 10 391>
LayerCount: 2
Back
Fore
SplineSet
133 306 m 0
 122 288 121 264 121 264 c 1
 121 10 l 1
 65 0 l 1
 65 482 l 1
 121 492 l 1
 121 362 l 1
 174 435 245 511 313 511 c 0
 363 511 422 490 442 400 c 1
 489 467 561 511 615 511 c 0
 677 511 752 479 752 326 c 2
 752 10 l 1
 695 0 l 1
 695 333 l 2
 695 449 649 462 615 462 c 0
 560 462 449 396 449 282 c 2
 449 10 l 1
 393 0 l 1
 393 333 l 2
 393 449 347 462 313 462 c 0
 271 462 200 415 133 306 c 0
EndSplineSet
EndChar
StartChar: n
Encoding: 110 110 15
Width: 536
Flags: MW
HStem: 0 21G<65 65 417 417> 446 55<304 347.5> 482 20G<121 121>
VStem: 65 56<112 147 297 492 492 492> 416 54<114 115>
LayerCount: 2
Back
Fore
SplineSet
121 502 m 1xb8
 121 297 l 1
 142 411 225 501 326 501 c 0
 394 501 436 465 454 393 c 0
 469 332 469 248 470 115 c 2
 471 12 l 1
 417 0 l 1
 416 114 l 2
 415 226 416 322 401 379 c 0
 389 428 369 446 326 446 c 0xd8
 282 446 229 426 176 327 c 0
 143 265 121 182 121 112 c 2
 120 11 l 1
 65 0 l 1
 65 492 l 1
 121 502 l 1xb8
EndSplineSet
EndChar
StartChar: p
Encoding: 112 112 17
Width: 518
Flags: MW
HStem: -193 21G<65 65> 7 56<227 315.5 226.5 331.5> 447 49<264 308 264 346> 479 20G<121 121>
VStem: 65 56<-183 35 97 360 428 488 488 488> 419 49<214.5 305>
LayerCount: 2
Back
Fore
SplineSet
308 496 m 0xec
 418 492 468 374 468 270 c 0
 468 138 410 7 253 7 c 0
 201 7 152 22 121 35 c 1
 121 -183 l 1
 65 -193 l 1
 65 488 l 1
 121 499 l 1xdc
 121 428 l 1
 162 465 220 496 308 496 c 0xec
256 63 m 0
 375 63 419 159 419 270 c 0
 419 340 394 447 298 447 c 0
 195 447 138 385 121 360 c 1
 121 97 l 1
 140 88 197 63 256 63 c 0
EndSplineSet
EndChar
StartChar: q
Encoding: 113 113 18
Width: 523
Flags: MW
HStem: -196 21G<378 378> -10 52<212 292.5> 445 51<260.5 338> 490 20G<402 403>
VStem: 50 51<159 285 159 301> 382 64
LayerCount: 2
Back
Fore
SplineSet
402 490 m 1xdc
 403 510 l 1xdc
 458 508 l 1
 434 -186 l 1
 378 -196 l 1
 387 59 l 1
 360 12 328 -10 257 -10 c 0
 138 -10 50 87 50 210 c 0
 50 392 168 496 327 496 c 0xec
 350 496 376 494 402 490 c 1xdc
392 163 m 2
 401 438 l 1
 379 442 349 445 327 445 c 0xec
 194 445 101 362 101 208 c 0
 101 110 168 42 256 42 c 0
 336 42 389 85 392 163 c 2
EndSplineSet
EndChar
StartChar: s
Encoding: 115 115 20
Width: 460
Flags: MW
HStem: 0 50<206 262.5> 458 47<254 277>
VStem: 78 57<356 396 356 429.5> 353 56<116 170.5>
LayerCount: 2
Back
Fore
SplineSet
254 505 m 0
 311 505 407 486 407 397 c 0
 407 391 407 385 406 379 c 1
 357 369 l 1
 358 374 358 379 358 384 c 0
 358 440 300 458 254 458 c 0
 160 457 135 419 135 373 c 0
 135 339 172 312 247 292 c 0
 356 262 409 214 409 145 c 0
 409 31 291 0 234 0 c 0
 151 0 72 44 50 121 c 1
 105 130 l 1
 121 77 178 50 234 50 c 0
 297 50 353 88 353 144 c 0
 353 197 300 222 234 240 c 0
 161 259 78 299 78 376 c 0
 78 483 180 505 254 505 c 0
EndSplineSet
EndChar
StartChar: t
Encoding: 116 116 21
Width: 373
Flags: MW
HStem: 0 21G<158 158> 446 56<20 158 20 158 215 353> 651 20G<215 215>
VStem: 158 57<10 446 10 446 10 446 502 661 661 661>
LayerCount: 2
Back
Fore
SplineSet
353 502 m 1
 353 446 l 1
 215 446 l 1
 215 10 l 1
 158 0 l 1
 158 446 l 1
 20 446 l 1
 20 502 l 1
 158 502 l 1
 158 661 l 1
 215 671 l 1
 215 502 l 1
 353 502 l 1
EndSplineSet
EndChar
StartChar: v
Encoding: 118 118 23
Width: 447
Flags: MW
HStem: 0 21G<197 197> 480 20G
LayerCount: 2
Back
Fore
SplineSet
437 480 m 1
 255 12 l 1
 197 0 l 1
 10 479 l 1
 63 500 l 1
 223 77 l 1
 385 500 l 1
 437 480 l 1
EndSplineSet
EndChar
StartChar: w
Encoding: 119 119 24
Width: 653
Flags: MW
HStem: 0 21G<138 138 423 423> 477 20G<94 94>
LayerCount: 2
Back
Fore
SplineSet
633 496 m 1
 481 12 l 1
 423 0 l 1
 330 388 l 1
 198 12 l 1
 138 0 l 1
 40 485 l 1
 94 497 l 1
 174 91 l 1
 305 485 l 1
 361 495 l 1
 454 88 l 1
 572 485 l 1
 633 496 l 1
EndSplineSet
EndChar
StartChar: x
Encoding: 120 120 25
Width: 471
Flags: MW
HStem: -4 21G<51 51 383 383> 484 20G<95 95 403 403>
LayerCount: 2
Back
Fore
SplineSet
428 28 m 1
 383 -4 l 1
 231 213 l 1
 51 -4 l 1
 9 32 l 1
 199 259 l 1
 51 472 l 1
 95 504 l 1
 234 302 l 1
 403 504 l 1
 444 468 l 1
 268 257 l 1
 428 28 l 1
EndSplineSet
EndChar
StartChar: y
Encoding: 121 121 26
Width: 500
Flags: MW
HStem: -197 21G<168 168> 480 20G<429 429>
LayerCount: 2
Back
Fore
SplineSet
429 500 m 1
 480 476 l 1
 168 -197 l 1
 117 -173 l 1
 226 61 l 1
 20 474 l 1
 70 499 l 1
 256 127 l 1
 429 500 l 1
EndSplineSet
EndChar
StartChar: z
Encoding: 122 122 27
Width: 453
Flags: MW
HStem: 0 56<105 406 52 416> 446 56<62 348 52 401>
LayerCount: 2
Back
Fore
SplineSet
406 0 m 1
 52 0 l 1
 30 46 l 1
 348 446 l 1
 52 446 l 1
 62 502 l 1
 401 502 l 1
 423 457 l 1
 105 56 l 1
 416 56 l 1
 406 0 l 1
EndSplineSet
EndChar
StartChar: braceleft
Encoding: 123 123 83
Width: 374
Flags: MW
HStem: -125 21G<311 311> 756 54<310 312>
VStem: 139 54<23 226 473 474 474 662> 139 173<473 810 662 810>
LayerCount: 2
Back
Fore
SplineSet
72 325 m 1xe0
 72 375 l 1
 113 392 139 425 139 473 c 2
 139 662 l 2
 139 776 252 809 312 810 c 1xd0
 310 756 l 1
 245 753 193 719 193 662 c 2
 193 474 l 2
 193 442 185 390 134 350 c 1
 167 325 193 283 193 226 c 2
 193 23 l 2
 193 -29 233 -64 313 -71 c 1
 311 -125 l 1
 251 -123 139 -90 139 23 c 2
 139 234 l 2
 139 275 110 311 72 325 c 1xe0
EndSplineSet
EndChar
StartChar: bar
Encoding: 124 124 93
Width: 255
Flags: MW
HStem: -71 21G<101 101> 735 20G<155 155>
VStem: 101 54<-61 -61 -61 745 745 745>
LayerCount: 2
Back
Fore
SplineSet
155 -61 m 1
 101 -71 l 1
 101 745 l 1
 155 755 l 1
 155 -61 l 1
EndSplineSet
EndChar
StartChar: braceright
Encoding: 125 125 82
Width: 374
Flags: MW
HStem: -125 54<55 57> 790 20G<56 56>
VStem: 55 173<-125 23> 174 54<23 211 211 212 459 662>
LayerCount: 2
Back
Fore
SplineSet
295 310 m 1xe0
 254 293 228 260 228 212 c 2
 228 23 l 2
 228 -91 115 -124 55 -125 c 1xe0
 57 -71 l 1
 122 -68 174 -34 174 23 c 2
 174 211 l 2
 174 243 182 295 233 335 c 1
 200 360 174 402 174 459 c 2
 174 662 l 2xd0
 174 714 134 749 54 756 c 1
 56 810 l 1
 116 808 228 775 228 662 c 2
 228 451 l 2
 228 410 257 374 295 360 c 1
 295 310 l 1xe0
EndSplineSet
EndChar
StartChar: asciitilde
Encoding: 126 126 89
Width: 645
Flags: MW
HStem: 150 54<404 441.5 404 471> 298 54<179.5 231>
LayerCount: 2
Back
Fore
SplineSet
527 332 m 1
 577 308 l 1
 565 271 522 150 420 150 c 0
 358 150 325 195 295 236 c 0
 267 275 247 298 215 298 c 0
 144 298 118 199 114 184 c 1
 65 208 l 1
 83 273 132 352 215 352 c 0
 277 352 310 307 339 267 c 0
 368 228 388 204 420 204 c 0
 463 204 508 258 527 332 c 1
EndSplineSet
EndChar
StartChar: exclamdown
Encoding: 161 161 214
Width: 185
Flags: MW
HStem: -192 21G<56 56> 480 20G<117 117>
VStem: 56 54<-182 341 341 341>
LayerCount: 2
Back
Fore
SplineSet
56 341 m 1
 110 352 l 1
 110 -182 l 1
 56 -192 l 1
 56 341 l 1
54 408 m 1
 61 490 l 1
 117 500 l 1
 110 418 l 1
 54 408 l 1
EndSplineSet
EndChar
StartChar: cent
Encoding: 162 162 99
Width: 506
Flags: MW
HStem: 0 21G<225 225> 97 52<274 305.5> 668 20G<289 289>
VStem: 51 53<281.5 343 281.5 370.5> 226 54 234 46
LayerCount: 2
Back
Fore
SplineSet
274 97 m 1
 272 17 l 1
 225 0 l 1
 228 101 l 1
 108 133 51 217 51 314 c 0
 51 427 120 559 240 595 c 1
 242 670 l 1
 289 688 l 1
 287 599 l 1
 344 597 394 570 426 527 c 1
 386 488 l 1
 364 523 327 544 285 547 c 1
 275 149 l 1
 336 149 391 186 417 234 c 1
 456 194 l 1
 419 138 354 100 274 97 c 1
229 154 m 1
 239 540 l 1
 139 501 104 370 104 316 c 0
 104 247 143 183 229 154 c 1
EndSplineSet
EndChar
StartChar: sterling
Encoding: 163 163 98
Width: 764
Flags: MW
HStem: -10 54<510.5 553.5> 71 54<300.5 319> 328 53<83 185 83 199 73 185 252 252 252 491> 672 54<345.5 460.5>
VStem: 178 54<466.5 546 466 563> 222 54<194 212>
LayerCount: 2
Back
Fore
SplineSet
637 155 m 1xf4
 690 148 l 1
 672 7 576 -10 531 -10 c 0
 479 -10 420 11 367 52 c 0
 349 66 329 71 309 71 c 0
 285 71 222 55 167 0 c 1
 132 41 l 1
 190 84 222 154 222 196 c 0xf4
 222 228 219 260 199 328 c 1
 73 328 l 1
 83 381 l 1
 185 381 l 1
 179 417 178 451 178 482 c 0
 178 644 261 726 411 726 c 0
 581 726 630 589 636 517 c 1
 582 513 l 1
 570 610 517 672 404 672 c 0
 287 672 232 611 232 481 c 0xf8
 232 451 233 418 240 381 c 1
 501 381 l 1
 491 328 l 1
 252 328 l 1
 271 261 276 224 276 206 c 0
 276 182 271 145 257 117 c 1
 275 122 292 125 309 125 c 0
 342 125 373 114 400 94 c 0
 442 61 490 44 531 44 c 0
 591 44 627 81 637 155 c 1xf4
EndSplineSet
EndChar
StartChar: currency
Encoding: 164 164 119
Width: 500
Flags: MW
HStem: 52 21G<85 85> 91 51<232 267.5> 359 51<233 267 233 280> 434 20G<85 85 414 414>
VStem: 90 51<234 268.5> 358 51<234 268.5 234 281>
LayerCount: 2
Back
Fore
SplineSet
409 251 m 0
 409 217 398 185 380 159 c 1
 450 89 l 1
 414 53 l 1
 344 122 l 1
 318 103 285 91 250 91 c 0
 214 91 182 103 155 122 c 1
 85 52 l 1
 49 88 l 1
 120 159 l 1
 101 185 90 217 90 251 c 0
 90 286 102 319 121 345 c 1
 49 418 l 1
 85 454 l 1
 158 381 l 1
 184 400 216 410 250 410 c 0
 284 410 316 400 342 381 c 1
 414 454 l 1
 450 418 l 1
 378 345 l 1
 398 319 409 286 409 251 c 0
250 142 m 0
 310 142 358 191 358 251 c 0
 358 311 310 359 250 359 c 0
 190 359 141 311 141 251 c 0
 141 191 190 142 250 142 c 0
EndSplineSet
EndChar
StartChar: yen
Encoding: 165 165 80
Width: 585
Flags: MW
HStem: 0 21G<257 257> 134 54<117 257 117 257 107 257 311 450> 288 53<117 228 117 257 107 228 341 450> 669 20G<64 123 123 123 457 517 517 517>
VStem: 257 54<10 134 10 134 10 134 188 288>
LayerCount: 2
Back
Fore
SplineSet
257 288 m 1
 107 288 l 1
 117 341 l 1
 228 341 l 1
 64 689 l 1
 123 689 l 1
 285 348 l 1
 457 689 l 1
 517 689 l 1
 341 341 l 1
 460 341 l 1
 450 288 l 1
 311 288 l 1
 311 188 l 1
 460 188 l 1
 450 134 l 1
 311 134 l 1
 311 10 l 1
 257 0 l 1
 257 134 l 1
 107 134 l 1
 117 188 l 1
 257 188 l 1
 257 288 l 1
EndSplineSet
EndChar
StartChar: section
Encoding: 167 167 122
Width: 475
Flags: MW
HStem: 0 53<210 286.5 210 294.5> 594 50<225.5 295.5>
VStem: 88 52<510.5 546.5 495.5 572.5> 360 52
LayerCount: 2
Back
Fore
SplineSet
412 284 m 0
 412 262 405 239 391 218 c 1
 405 199 413 174 413 141 c 0
 413 74 347 0 242 0 c 0
 120 0 61 94 60 129 c 1
 112 137 l 1
 131 84 178 53 242 53 c 0
 331 53 360 113 360 142 c 0
 360 187 340 211 242 241 c 0
 136 273 89 311 89 382 c 0
 89 412 99 434 114 452 c 1
 97 472 88 496 88 525 c 0
 88 620 187 644 258 644 c 0
 364 644 414 594 414 531 c 0
 414 521 412 512 411 507 c 1
 359 515 l 2
 359 519 360 525 360 533 c 0
 360 569 330 594 261 594 c 0
 190 594 140 569 140 524 c 0
 140 467 207 448 247 436 c 0
 340 406 412 384 412 284 c 0
351 253 m 1
 357 265 359 277 359 285 c 0
 359 331 339 353 241 384 c 0
 207 394 178 406 156 419 c 1
 146 408 141 396 141 381 c 0
 141 324 208 305 248 293 c 0
 287 281 323 269 351 253 c 1
EndSplineSet
EndChar
StartChar: dieresis
Encoding: 168 168 123
Width: 500
Flags: MW
HStem: 571 21G<129 129 289 289> 643 20G<211 211 371 371>
LayerCount: 2
Back
Fore
SplineSet
211 663 m 1
 203 581 l 1
 129 571 l 1
 138 653 l 1
 211 663 l 1
371 663 m 1
 363 581 l 1
 289 571 l 1
 298 653 l 1
 371 663 l 1
EndSplineSet
EndChar
StartChar: copyright
Encoding: 169 169 68
Width: 576
Flags: MW
HStem: 236 46<239.5 336.5 239.5 349> 348 46<263 302.5 263 308.5> 545 46<254 300.5> 644 46<239.5 336.5>
VStem: 66 46<413 513 413 525.5> 162 47<443 476.5 443 502.5> 464 46<413 513>
LayerCount: 2
Back
Fore
SplineSet
288 236 m 0
 166 236 66 338 66 463 c 0
 66 588 166 690 288 690 c 0
 410 690 510 588 510 463 c 0
 510 338 410 236 288 236 c 0
288 644 m 0
 191 644 112 563 112 463 c 0
 112 363 191 282 288 282 c 0
 385 282 464 363 464 463 c 0
 464 563 385 644 288 644 c 0
280 348 m 0
 216 348 162 402 162 464 c 0
 162 541 213 591 291 591 c 0
 318 591 360 577 387 544 c 1
 351 515 l 1
 337 532 310 545 291 545 c 0
 217 545 209 489 209 464 c 0
 209 422 246 394 280 394 c 0
 325 394 349 414 362 447 c 1
 407 436 l 1
 387 376 337 348 280 348 c 0
EndSplineSet
EndChar
StartChar: ordfeminine
Encoding: 170 170 212
Width: 250
Flags: MW
HStem: 352 21G<199 199> 358 49<98.5 133> 628 49<109.5 161>
VStem: 0 50<469 511.5 469 542.5> 199 49
LayerCount: 2
Back
Fore
SplineSet
248 649 m 1x78
 249 362 l 1
 199 352 l 1xb8
 199 380 l 1
 171 365 145 358 121 358 c 0
 50 358 0 416 0 495 c 0
 0 590 60 677 150 677 c 0
 174 677 217 669 248 649 c 1x78
150 628 m 0
 69 628 50 527 50 496 c 0
 50 442 78 407 119 407 c 0x78
 151 407 185 428 198 438 c 1
 201 618 l 1
 181 624 172 628 150 628 c 0
EndSplineSet
EndChar
StartChar: guillemotleft
Encoding: 171 171 87
Width: 609
Flags: MW
HStem: 66 21G<277 277 482 482> 422 20G<295 295 500 500>
LayerCount: 2
Back
Fore
SplineSet
277 66 m 1
 72 252 l 1
 295 442 l 1
 330 402 l 1
 153 251 l 1
 313 106 l 1
 277 66 l 1
482 66 m 1
 277 252 l 1
 500 442 l 1
 535 402 l 1
 358 251 l 1
 518 106 l 1
 482 66 l 1
EndSplineSet
EndChar
StartChar: logicalnot
Encoding: 172 172 213
Width: 516
Flags: MW
HStem: 114 21G<395 395> 265 51<81 396 71 447>
VStem: 395 51<114 131>
LayerCount: 2
Back
Fore
SplineSet
395 114 m 1
 396 265 l 1
 71 265 l 1
 81 316 l 1
 447 316 l 1
 446 131 l 1
 395 114 l 1
EndSplineSet
EndChar
StartChar: uni00AD
Encoding: 173 173 130
Width: 442
Flags: MW
HStem: 227 54<81 363 71 373>
LayerCount: 2
Back
Fore
SplineSet
373 281 m 1
 363 227 l 1
 71 227 l 1
 81 281 l 1
 373 281 l 1
EndSplineSet
EndChar
StartChar: registered
Encoding: 174 174 79
Width: 576
Flags: MW
HStem: 236 46<239.5 336.5 239.5 349> 644 46<239.5 336.5>
VStem: 66 46<413 513 413 525.5> 358 46<515 529> 464 46<413 513>
LayerCount: 2
Back
Fore
SplineSet
288 236 m 0
 166 236 66 338 66 463 c 0
 66 588 166 690 288 690 c 0
 410 690 510 588 510 463 c 0
 510 338 410 236 288 236 c 0
288 644 m 0
 191 644 112 563 112 463 c 0
 112 363 191 282 288 282 c 0
 385 282 464 363 464 463 c 0
 464 563 385 644 288 644 c 0
304 447 m 1
 388 389 l 1
 357 355 l 1
 238 437 l 1
 226 365 l 1
 178 360 l 1
 211 562 l 2
 214 579 214 590 289 590 c 0
 363 590 404 563 404 520 c 0
 404 478 351 457 304 447 c 1
255 543 m 1
 246 485 l 1
 308 491 358 510 358 520 c 0
 358 538 318 544 283 544 c 0
 274 544 264 544 255 543 c 1
EndSplineSet
EndChar
StartChar: macron
Encoding: 175 175 215
Width: 500
Flags: MW
HStem: 587 54<129 371 119 381>
LayerCount: 2
Back
Fore
SplineSet
371 587 m 1
 119 587 l 1
 129 641 l 1
 381 641 l 1
 371 587 l 1
EndSplineSet
EndChar
StartChar: degree
Encoding: 176 176 70
Width: 267
Flags: MW
HStem: 500 56<112 154 112 169.5> 710 56<112 154>
VStem: 0 56<612 654 612 670> 210 56<612 654>
LayerCount: 2
Back
Fore
SplineSet
133 500 m 0
 60 500 0 560 0 633 c 0
 0 707 60 766 133 766 c 0
 206 766 266 707 266 633 c 0
 266 560 206 500 133 500 c 0
133 710 m 0
 91 710 56 675 56 633 c 0
 56 591 91 556 133 556 c 0
 175 556 210 591 210 633 c 0
 210 675 175 710 133 710 c 0
EndSplineSet
EndChar
StartChar: plusminus
Encoding: 177 177 216
Width: 435
Flags: MW
HStem: 0 52<67 366 77 356> 270 54<64 190 64 190 54 190 244 370> 436 20G<244 244>
VStem: 190 54<144 270 144 270 144 270 324 445 445 445>
LayerCount: 2
Back
Fore
SplineSet
381 324 m 1
 370 270 l 1
 244 270 l 1
 244 144 l 1
 190 134 l 1
 190 270 l 1
 54 270 l 1
 64 324 l 1
 190 324 l 1
 190 445 l 1
 244 456 l 1
 244 324 l 1
 381 324 l 1
67 0 m 1
 77 52 l 1
 366 52 l 1
 356 0 l 1
 67 0 l 1
EndSplineSet
EndChar
StartChar: twosuperior
Encoding: 178 178 217
Width: 237
Flags: MW
HStem: 439 45<49 229> 775 46<105.5 136.5>
VStem: 185 45<709 740>
LayerCount: 2
Back
Fore
SplineSet
32 718 m 1
 0 754 l 1
 23 789 69 821 120 821 c 0
 205 821 230 761 230 724 c 0
 230 667 171 617 125 588 c 0
 77 557 55 534 49 484 c 1
 237 484 l 1
 229 439 l 1
 3 439 l 1
 3 461 l 2
 3 543 34 581 100 625 c 0
 159 664 185 694 185 724 c 0
 185 756 153 775 120 775 c 0
 91 775 57 760 32 718 c 1
EndSplineSet
EndChar
StartChar: threesuperior
Encoding: 179 179 218
Width: 236
Flags: MW
HStem: 438 45<98.5 129.5 98.5 142> 627 44<85 85> 773 45<104.5 132>
VStem: 182 54
LayerCount: 2
Back
Fore
SplineSet
42 738 m 1
 11 771 l 1
 30 791 66 818 116 818 c 0
 179 818 228 780 228 732 c 0
 228 699 212 672 181 653 c 1
 217 630 236 601 236 556 c 0
 236 470 165 438 119 438 c 0
 77 438 19 456 0 523 c 1
 43 541 l 1
 48 504 78 483 119 483 c 0
 140 483 191 496 191 556 c 0
 191 598 160 630 85 627 c 1
 82 671 l 1
 117 671 182 684 182 732 c 0
 182 757 148 773 116 773 c 0
 93 773 66 763 42 738 c 1
EndSplineSet
EndChar
StartChar: acute
Encoding: 180 180 136
Width: 500
Flags: MW
HStem: 567 21G<189 189> 704 20G<299 299>
LayerCount: 2
Back
Fore
SplineSet
149 602 m 1
 299 724 l 1
 351 679 l 1
 189 567 l 1
 149 602 l 1
EndSplineSet
EndChar
StartChar: mu
Encoding: 181 181 220
Width: 515
Flags: MW
HStem: -174 21G<154 154> -5 49<202.5 252.5 182 256> 485 20G<136 136 450 450>
VStem: 65 54<240.5 333> 394 56
LayerCount: 2
Back
Fore
SplineSet
65 292 m 0
 65 374 77 464 81 495 c 1
 136 505 l 1
 133 489 119 375 119 340 c 0
 119 76 146 44 218 44 c 0
 287 44 358 93 379 117 c 0
 386 125 392 145 392 160 c 2
 397 495 l 1
 450 505 l 1
 450 11 l 1
 388 1 l 1
 388 75 l 1
 363 37 295 -5 217 -5 c 0
 188 -5 157 1 136 13 c 1
 154 -174 l 1
 99 -164 l 1
 94 -128 65 189 65 292 c 0
EndSplineSet
EndChar
StartChar: paragraph
Encoding: 182 182 106
Width: 559
Flags: MW
HStem: -80 21G<344 344> 765 20G<368 368>
VStem: 419 54<571 668>
LayerCount: 2
Back
Fore
SplineSet
358 729 m 1
 359 713 360 679 360 631 c 0
 360 494 349 239 287 -75 c 1
 232 -79 l 1
 264 82 283 227 294 349 c 1
 201 349 59 365 59 526 c 0
 59 679 230 760 368 785 c 1
 377 732 l 2
 376 732 358 729 358 729 c 1
471 739 m 2
 471 738 473 702 473 638 c 0
 473 504 463 245 400 -75 c 1
 344 -80 l 1
 409 242 419 503 419 637 c 0
 419 699 417 734 417 735 c 2
 471 739 l 2
EndSplineSet
EndChar
StartChar: periodcentered
Encoding: 183 183 221
Width: 500
Flags: MW
HStem: 207 21G<209 209> 279 20G<291 291>
LayerCount: 2
Back
Fore
SplineSet
291 299 m 1
 283 217 l 1
 209 207 l 1
 218 289 l 1
 291 299 l 1
EndSplineSet
EndChar
StartChar: cedilla
Encoding: 184 184 140
Width: 500
Flags: MW
HStem: -201 42<232 253.5 232 265> -61 42<233.5 253.5> 9 20G<231 231>
VStem: 289 42<-123.5 -96.5>
LayerCount: 2
Back
Fore
SplineSet
231 29 m 1
 229 -19 l 1
 233 -19 l 2
 289 -19 331 -55 331 -110 c 0
 331 -160 290 -201 240 -201 c 0
 211 -201 185 -188 168 -166 c 1
 198 -136 l 1
 203 -149 224 -159 240 -159 c 0
 267 -159 289 -137 289 -110 c 0
 289 -83 267 -61 240 -61 c 0
 227 -61 213 -67 208 -72 c 1
 179 -42 l 1
 204 27 l 1
 231 29 l 1
EndSplineSet
EndChar
StartChar: onesuperior
Encoding: 185 185 219
Width: 179
Flags: MW
HStem: 454 46<9 78 18 78 124 171> 836 20G<129 129>
VStem: 80 46
LayerCount: 2
Back
Fore
SplineSet
9 454 m 1
 18 500 l 1
 78 500 l 1
 82 752 l 1
 30 705 l 1
 0 739 l 1
 129 856 l 1
 124 500 l 1
 179 500 l 1
 171 454 l 1
 9 454 l 1
EndSplineSet
EndChar
StartChar: ordmasculine
Encoding: 186 186 222
Width: 285
Flags: MW
HStem: 356 46<110 158.5 110 174> 634 47<123 173.5>
VStem: 0 52<476 540 476 553> 232 52<493.5 553>
LayerCount: 2
Back
Fore
SplineSet
133 356 m 0
 53 356 0 426 0 505 c 0
 0 601 68 681 152 681 c 0
 226 681 284 611 284 531 c 0
 284 437 215 356 133 356 c 0
149 634 m 0
 97 634 52 575 52 505 c 0
 52 447 87 402 133 402 c 0
 184 402 232 460 232 527 c 0
 232 579 198 634 149 634 c 0
EndSplineSet
EndChar
StartChar: guillemotright
Encoding: 187 187 88
Width: 609
Flags: MW
HStem: 66 21G<129 129 333 333> 422 20G<111 111 316 316>
LayerCount: 2
Back
Fore
SplineSet
129 66 m 1
 92 106 l 1
 252 251 l 1
 76 402 l 1
 111 442 l 1
 334 252 l 1
 129 66 l 1
333 66 m 1
 297 106 l 1
 457 251 l 1
 281 402 l 1
 316 442 l 1
 539 252 l 1
 333 66 l 1
EndSplineSet
EndChar
StartChar: questiondown
Encoding: 191 191 115
Width: 501
Flags: MW
HStem: 0 54<159 268.5 159 274.5> 693 20G<325 325>
VStem: 0 53<169.5 247.5 169.5 261>
LayerCount: 2
Back
Fore
SplineSet
262 621 m 1
 269 703 l 1
 325 713 l 1
 318 631 l 1
 262 621 l 1
221 0 m 0
 89 0 0 83 0 206 c 0
 0 316 84 379 134 424 c 2
 282 556 l 1
 309 508 l 1
 167 381 l 2
 120 339 53 289 53 206 c 0
 53 133 97 54 221 54 c 0
 316 54 370 141 376 152 c 1
 415 113 l 1
 393 80 328 0 221 0 c 0
EndSplineSet
EndChar
StartChar: Agrave
Encoding: 192 192 226
Width: 623
Flags: MW
HStem: 0 21G<99 99> 880 20G<290 290>
LayerCount: 2
Back
Fore
SplineSet
360 680 m 1
 573 33 l 1
 526 1 l 1
 440 261 l 1
 176 206 l 1
 99 0 l 1
 50 26 l 1
 112 192 l 1
 71 184 l 1
 60 238 l 1
 135 253 l 1
 290 667 l 1
 360 680 l 1
199 267 m 1
 423 313 l 1
 326 607 l 1
 199 267 l 1
416 754 m 1
 370 726 l 1
 230 866 l 1
 290 900 l 1
 416 754 l 1
EndSplineSet
EndChar
StartChar: Aacute
Encoding: 193 193 149
Width: 623
Flags: MW
HStem: 0 21G<99 99> 873 20G<376 376>
LayerCount: 2
Back
Fore
SplineSet
360 680 m 1
 573 33 l 1
 526 1 l 1
 440 261 l 1
 176 206 l 1
 99 0 l 1
 50 26 l 1
 112 192 l 1
 71 184 l 1
 60 238 l 1
 135 253 l 1
 290 667 l 1
 360 680 l 1
199 267 m 1
 423 313 l 1
 326 607 l 1
 199 267 l 1
226 771 m 1
 376 893 l 1
 428 848 l 1
 266 736 l 1
 226 771 l 1
EndSplineSet
EndChar
StartChar: Acircumflex
Encoding: 194 194 150
Width: 623
Flags: MW
HStem: 0 21G<99 99> 861 20G<335 335>
LayerCount: 2
Back
Fore
SplineSet
360 680 m 1
 573 33 l 1
 526 1 l 1
 440 261 l 1
 176 206 l 1
 99 0 l 1
 50 26 l 1
 112 192 l 1
 71 184 l 1
 60 238 l 1
 135 253 l 1
 290 667 l 1
 360 680 l 1
199 267 m 1
 423 313 l 1
 326 607 l 1
 199 267 l 1
218 718 m 1
 185 760 l 1
 335 881 l 1
 464 759 l 1
 428 719 l 1
 332 806 l 1
 218 718 l 1
EndSplineSet
EndChar
StartChar: Atilde
Encoding: 195 195 227
Width: 623
Flags: MW
HStem: 0 21G<99 99> 721 41<380.5 405.5 380.5 414.5> 829 41<237.5 261.5>
LayerCount: 2
Back
Fore
SplineSet
360 680 m 1
 573 33 l 1
 526 1 l 1
 440 261 l 1
 176 206 l 1
 99 0 l 1
 50 26 l 1
 112 192 l 1
 71 184 l 1
 60 238 l 1
 135 253 l 1
 290 667 l 1
 360 680 l 1
199 267 m 1
 423 313 l 1
 326 607 l 1
 199 267 l 1
389 762 m 0
 422 762 444 824 453 853 c 1
 502 837 l 1
 487 772 440 721 389 721 c 0
 344 721 320 753 300 781 c 0
 281 807 270 829 253 829 c 0
 222 829 198 770 192 745 c 1
 143 763 l 1
 159 813 192 870 253 870 c 0
 299 870 323 837 342 811 c 0
 361 785 372 762 389 762 c 0
EndSplineSet
EndChar
StartChar: Adieresis
Encoding: 196 196 152
Width: 623
Flags: MW
HStem: 0 21G<99 99> 799 20G<292 292 453 453>
LayerCount: 2
Back
Fore
SplineSet
360 680 m 1
 573 33 l 1
 526 1 l 1
 440 261 l 1
 176 206 l 1
 99 0 l 1
 50 26 l 1
 112 192 l 1
 71 184 l 1
 60 238 l 1
 135 253 l 1
 290 667 l 1
 360 680 l 1
199 267 m 1
 423 313 l 1
 326 607 l 1
 199 267 l 1
292 819 m 1
 284 737 l 1
 210 727 l 1
 219 809 l 1
 292 819 l 1
453 819 m 1
 445 737 l 1
 371 727 l 1
 380 809 l 1
 453 819 l 1
EndSplineSet
EndChar
StartChar: Aring
Encoding: 197 197 228
Width: 623
Flags: MW
HStem: 0 21G<99 99> 721 46<293.5 335 293.5 343.5> 893 47<311.5 349.5>
VStem: 198 42<806.5 845.5 806.5 854.5> 405 41<815.5 850.5>
LayerCount: 2
Back
Fore
SplineSet
312 721 m 0
 245 721 198 768 198 823 c 0
 198 886 258 940 332 940 c 0
 402 940 446 888 446 837 c 0
 446 763 375 721 312 721 c 0
329 893 m 0
 294 893 240 868 240 823 c 0
 240 790 273 767 314 767 c 0
 356 767 405 796 405 835 c 0
 405 866 370 893 329 893 c 0
360 680 m 1
 573 33 l 1
 526 1 l 1
 440 261 l 1
 176 206 l 1
 99 0 l 1
 50 26 l 1
 112 192 l 1
 71 184 l 1
 60 238 l 1
 135 253 l 1
 290 667 l 1
 360 680 l 1
199 267 m 1
 423 313 l 1
 326 607 l 1
 199 267 l 1
EndSplineSet
EndChar
StartChar: AE
Encoding: 198 198 229
Width: 1049
Flags: MW
HStem: 0 56<559 969> 326 56<559 927 559 944> 625 56<559 974 559 559>
VStem: 503 56<56 56 56 307 307 307 382 572 572 572>
LayerCount: 2
Back
Fore
SplineSet
559 56 m 1
 989 56 l 1
 969 0 l 1
 503 0 l 1
 503 307 l 1
 282 261 l 1
 98 0 l 1
 50 26 l 1
 205 246 l 1
 166 237 l 1
 155 290 l 1
 251 310 l 1
 513 681 l 1
 984 681 l 1
 974 625 l 1
 559 625 l 1
 559 382 l 1
 944 382 l 1
 927 326 l 1
 559 326 l 1
 559 56 l 1
503 362 m 1
 503 572 l 1
 329 326 l 1
 503 362 l 1
EndSplineSet
EndChar
StartChar: Ccedilla
Encoding: 199 199 155
Width: 631
Flags: MW
HStem: -201 42<336 357.5 336 369> -61 42<337.5 357.5> -1 53<333 381 270 385> 628 53<274.5 374 257.5 380.5>
VStem: 51 52<227 359.5 227 371.5> 393 42<-123.5 -96.5>
LayerCount: 2
Back
Fore
SplineSet
344 -159 m 0
 371 -159 393 -137 393 -110 c 0
 393 -83 371 -61 344 -61 c 0
 331 -61 317 -67 312 -72 c 1
 283 -42 l 1
 298 1 l 1
 160 18 51 138 51 291 c 0
 51 452 169 681 346 681 c 0
 402 681 453 665 493 635 c 1
 493 658 l 1
 539 658 l 1
 539 539 l 1
 493 539 l 1
 493 564 l 1
 466 594 421 628 340 628 c 0
 209 628 103 426 103 293 c 0
 103 161 206 52 334 52 c 0
 428 52 503 94 542 170 c 1
 581 131 l 1
 531 49 437 -1 333 -1 c 1
 333 -19 l 1
 337 -19 l 2
 393 -19 435 -55 435 -110 c 0
 435 -160 394 -201 344 -201 c 0
 315 -201 289 -188 272 -166 c 1
 302 -136 l 1
 307 -149 328 -159 344 -159 c 0
EndSplineSet
EndChar
StartChar: Egrave
Encoding: 200 200 230
Width: 611
Flags: MW
HStem: 0 56<121 531> 326 56<121 489 121 506> 625 56<121 536 121 121> 880 20G<249 249>
VStem: 65 56<56 56 56 326 382 625>
LayerCount: 2
Back
Fore
SplineSet
121 56 m 1
 551 56 l 1
 531 0 l 1
 65 0 l 1
 65 681 l 1
 546 681 l 1
 536 625 l 1
 121 625 l 1
 121 382 l 1
 506 382 l 1
 489 326 l 1
 121 326 l 1
 121 56 l 1
375 754 m 1
 329 726 l 1
 189 866 l 1
 249 900 l 1
 375 754 l 1
EndSplineSet
EndChar
StartChar: Ecircumflex
Encoding: 202 202 231
Width: 611
Flags: MW
HStem: 0 56<121 531> 326 56<121 489 121 506> 625 56<121 536 121 121> 861 20G<317 317>
VStem: 65 56<56 56 56 326 382 625>
LayerCount: 2
Back
Fore
SplineSet
121 56 m 1
 551 56 l 1
 531 0 l 1
 65 0 l 1
 65 681 l 1
 546 681 l 1
 536 625 l 1
 121 625 l 1
 121 382 l 1
 506 382 l 1
 489 326 l 1
 121 326 l 1
 121 56 l 1
200 718 m 1
 167 760 l 1
 317 881 l 1
 446 759 l 1
 410 719 l 1
 314 806 l 1
 200 718 l 1
EndSplineSet
EndChar
StartChar: Edieresis
Encoding: 203 203 159
Width: 611
Flags: MW
HStem: 0 56<121 531> 326 56<121 489 121 506> 625 56<121 536 121 121> 799 20G<271 271 432 432>
VStem: 65 56<56 56 56 326 382 625>
LayerCount: 2
Back
Fore
SplineSet
121 56 m 1
 551 56 l 1
 531 0 l 1
 65 0 l 1
 65 681 l 1
 546 681 l 1
 536 625 l 1
 121 625 l 1
 121 382 l 1
 506 382 l 1
 489 326 l 1
 121 326 l 1
 121 56 l 1
271 819 m 1
 263 737 l 1
 189 727 l 1
 198 809 l 1
 271 819 l 1
432 819 m 1
 424 737 l 1
 350 727 l 1
 359 809 l 1
 432 819 l 1
EndSplineSet
EndChar
StartChar: Igrave
Encoding: 204 204 232
Width: 437
Flags: MW
HStem: 0 56<70 193 249 367 60 193> 625 56<70 193 60 377 249 367 249 249> 880 20G<178 178>
VStem: 193 56<56 625 56 625>
LayerCount: 2
Back
Fore
SplineSet
367 625 m 1
 249 625 l 1
 249 56 l 1
 377 56 l 1
 367 0 l 1
 60 0 l 1
 70 56 l 1
 193 56 l 1
 193 625 l 1
 60 625 l 1
 70 681 l 1
 377 681 l 1
 367 625 l 1
304 754 m 1
 258 726 l 1
 118 866 l 1
 178 900 l 1
 304 754 l 1
EndSplineSet
EndChar
StartChar: Iacute
Encoding: 205 205 161
Width: 437
Flags: MW
HStem: 0 56<70 193 249 367 60 193> 625 56<70 193 60 377 249 367 249 249> 873 20G<274 274>
VStem: 193 56<56 625 56 625>
LayerCount: 2
Back
Fore
SplineSet
367 625 m 1
 249 625 l 1
 249 56 l 1
 377 56 l 1
 367 0 l 1
 60 0 l 1
 70 56 l 1
 193 56 l 1
 193 625 l 1
 60 625 l 1
 70 681 l 1
 377 681 l 1
 367 625 l 1
124 771 m 1
 274 893 l 1
 327 848 l 1
 165 736 l 1
 124 771 l 1
EndSplineSet
EndChar
StartChar: Icircumflex
Encoding: 206 206 162
Width: 437
Flags: MW
HStem: 0 56<70 193 249 367 60 193> 625 56<70 193 60 377 249 367 249 249> 861 20G<231 231>
VStem: 193 56<56 625 56 625>
LayerCount: 2
Back
Fore
SplineSet
367 625 m 1
 249 625 l 1
 249 56 l 1
 377 56 l 1
 367 0 l 1
 60 0 l 1
 70 56 l 1
 193 56 l 1
 193 625 l 1
 60 625 l 1
 70 681 l 1
 377 681 l 1
 367 625 l 1
114 718 m 1
 81 760 l 1
 231 881 l 1
 360 759 l 1
 324 719 l 1
 228 806 l 1
 114 718 l 1
EndSplineSet
EndChar
StartChar: Idieresis
Encoding: 207 207 233
Width: 437
Flags: MW
HStem: 0 56<70 193 249 367 60 193> 625 56<70 193 60 377 249 367 249 249> 799 20G<185 185 346 346>
VStem: 193 56<56 625 56 625>
LayerCount: 2
Back
Fore
SplineSet
367 625 m 1
 249 625 l 1
 249 56 l 1
 377 56 l 1
 367 0 l 1
 60 0 l 1
 70 56 l 1
 193 56 l 1
 193 625 l 1
 60 625 l 1
 70 681 l 1
 377 681 l 1
 367 625 l 1
185 819 m 1
 177 737 l 1
 103 727 l 1
 112 809 l 1
 185 819 l 1
346 819 m 1
 338 737 l 1
 264 727 l 1
 273 809 l 1
 346 819 l 1
EndSplineSet
EndChar
StartChar: Eth
Encoding: 208 208 234
Width: 676
Flags: MW
HStem: -15 54<248.5 294.5 248.5 378.5> 291 59<36 125 36 125 26 125 36 179 179 279> 660 20G<125 151 151 210>
VStem: 125 54<45 291 45 291 45 291 350 627> 562 54<251 366.5>
LayerCount: 2
Back
Fore
SplineSet
125 1 m 1
 125 291 l 1
 26 291 l 1
 36 350 l 1
 125 350 l 1
 125 680 l 1
 151 680 l 2
 269 680 355 657 415 628 c 0
 546 566 616 453 616 301 c 0
 616 99 490 -15 267 -15 c 0
 229 -15 165 -10 125 1 c 1
179 627 m 1
 179 350 l 1
 289 350 l 1
 279 291 l 1
 179 291 l 1
 179 45 l 1
 198 42 230 39 267 39 c 0
 322 39 401 47 462 86 c 0
 528 129 562 201 562 301 c 0
 562 432 505 525 391 579 c 0
 310 617 220 626 179 627 c 1
EndSplineSet
EndChar
StartChar: Ntilde
Encoding: 209 209 235
Width: 615
Flags: MW
HStem: 0 21G<486 486> 721 41<370.5 395.5 370.5 404.5> 829 41<227.5 251.5>
VStem: 65 54 497 53<88 671 671 671>
LayerCount: 2
Back
Fore
SplineSet
497 671 m 1
 550 681 l 1
 550 13 l 1
 486 0 l 1
 119 588 l 1
 119 12 l 1
 66 1 l 1
 65 664 l 1
 124 681 l 1
 497 88 l 1
 497 671 l 1
379 762 m 0
 412 762 434 824 443 853 c 1
 492 837 l 1
 477 772 430 721 379 721 c 0
 334 721 310 753 290 781 c 0
 271 807 260 829 243 829 c 0
 212 829 188 770 182 745 c 1
 133 763 l 1
 149 813 182 870 243 870 c 0
 289 870 313 837 332 811 c 0
 351 785 362 762 379 762 c 0
EndSplineSet
EndChar
StartChar: Otilde
Encoding: 213 213 237
Width: 660
Flags: MW
HStem: 0 52<252 370.5 252 387> 632 52<282.5 403.5> 721 41<410.5 435.5 410.5 444.5> 829 41<267.5 291.5>
VStem: 60 53<243 403 243 415> 547 53<280 432.5>
LayerCount: 2
Back
Fore
SplineSet
309 0 m 0
 164 0 60 145 60 315 c 0
 60 515 195 684 351 684 c 0
 495 684 600 541 600 369 c 0
 600 169 465 0 309 0 c 0
344 632 m 0
 221 632 113 491 113 315 c 0
 113 171 195 52 309 52 c 0
 432 52 547 195 547 365 c 0
 547 500 463 632 344 632 c 0
419 762 m 0
 452 762 474 824 483 853 c 1
 532 837 l 1
 517 772 470 721 419 721 c 0
 374 721 350 753 330 781 c 0
 311 807 300 829 283 829 c 0
 252 829 228 770 222 745 c 1
 173 763 l 1
 189 813 222 870 283 870 c 0
 329 870 353 837 372 811 c 0
 391 785 402 762 419 762 c 0
EndSplineSet
EndChar
StartChar: Odieresis
Encoding: 214 214 170
Width: 660
Flags: MW
HStem: 0 52<252 370.5 252 387> 632 52<282.5 403.5> 799 20G<313 313 473 473>
VStem: 60 53<243 403 243 415> 547 53<280 432.5>
LayerCount: 2
Back
Fore
SplineSet
313 819 m 1
 305 737 l 1
 231 727 l 1
 240 809 l 1
 313 819 l 1
473 819 m 1
 465 737 l 1
 391 727 l 1
 400 809 l 1
 473 819 l 1
309 0 m 0
 164 0 60 145 60 315 c 0
 60 515 195 684 351 684 c 0
 495 684 600 541 600 369 c 0
 600 169 465 0 309 0 c 0
344 632 m 0
 221 632 113 491 113 315 c 0
 113 171 195 52 309 52 c 0
 432 52 547 195 547 365 c 0
 547 500 463 632 344 632 c 0
EndSplineSet
EndChar
StartChar: multiply
Encoding: 215 215 171
Width: 354
Flags: MW
HStem: 129 21G<91 91> 355 20G<263 263>
LayerCount: 2
Back
Fore
SplineSet
215 253 m 1
 299 168 l 1
 262 131 l 1
 178 215 l 1
 91 129 l 1
 54 166 l 1
 141 253 l 1
 63 331 l 1
 100 368 l 1
 178 290 l 1
 263 375 l 1
 300 338 l 1
 215 253 l 1
EndSplineSet
EndChar
StartChar: Oslash
Encoding: 216 216 238
Width: 660
Flags: MW
HStem: -33 21G<130 130> -1 52<289 382.5 289 387> 631 52<283 358.5> 721 20G<500 500>
VStem: 60 53<281 402.5 281 412.5> 547 53<295.5 403>
LayerCount: 2
Back
Fore
SplineSet
497 626 m 1
 567 567 600 465 600 368 c 0
 600 168 465 -1 309 -1 c 0
 261 -1 214 16 175 46 c 1
 130 -33 l 1
 85 -7 l 1
 136 84 l 1
 87 143 60 224 60 312 c 0
 60 513 194 683 351 683 c 0
 387 683 422 674 454 656 c 1
 500 741 l 1
 546 714 l 1
 497 626 l 1
164 134 m 1
 427 608 l 1
 401 623 373 631 344 631 c 0
 222 631 113 490 113 315 c 0
 113 247 132 182 164 134 c 1
309 51 m 0
 456 51 547 227 547 364 c 0
 547 442 517 523 469 575 c 1
 200 92 l 1
 232 65 269 51 309 51 c 0
EndSplineSet
EndChar
StartChar: Ugrave
Encoding: 217 217 239
Width: 684
Flags: MW
HStem: 0 49<243.5 444 243.5 470> 880 20G<313 313>
VStem: 66 56<345.5 492 345.5 494> 562 56<360.5 472.5>
LayerCount: 2
Back
Fore
SplineSet
439 754 m 1
 393 726 l 1
 253 866 l 1
 313 900 l 1
 439 754 l 1
342 0 m 0
 105 0 66 197 66 459 c 0
 66 529 67 640 68 670 c 1
 125 680 l 1
 124 658 122 534 122 450 c 0
 122 241 145 49 342 49 c 0
 546 49 562 260 562 431 c 0
 562 514 561 634 560 669 c 1
 616 680 l 1
 617 656 618 550 618 476 c 0
 618 245 598 0 342 0 c 0
EndSplineSet
EndChar
StartChar: Uacute
Encoding: 218 218 174
Width: 684
Flags: MW
HStem: 0 49<243.5 444 243.5 470> 873 20G<414 414>
VStem: 66 56<345.5 492 345.5 494> 562 56<360.5 472.5>
LayerCount: 2
Back
Fore
SplineSet
342 0 m 0
 105 0 66 197 66 459 c 0
 66 529 67 640 68 670 c 1
 125 680 l 1
 124 658 122 534 122 450 c 0
 122 241 145 49 342 49 c 0
 546 49 562 260 562 431 c 0
 562 514 561 634 560 669 c 1
 616 680 l 1
 617 656 618 550 618 476 c 0
 618 245 598 0 342 0 c 0
264 771 m 1
 414 893 l 1
 467 848 l 1
 305 736 l 1
 264 771 l 1
EndSplineSet
EndChar
StartChar: Ucircumflex
Encoding: 219 219 240
Width: 684
Flags: MW
HStem: 0 49<243.5 444 243.5 470> 861 20G<356 356>
VStem: 66 56<345.5 492 345.5 494> 562 56<360.5 472.5>
LayerCount: 2
Back
Fore
SplineSet
342 0 m 0
 105 0 66 197 66 459 c 0
 66 529 67 640 68 670 c 1
 125 680 l 1
 124 658 122 534 122 450 c 0
 122 241 145 49 342 49 c 0
 546 49 562 260 562 431 c 0
 562 514 561 634 560 669 c 1
 616 680 l 1
 617 656 618 550 618 476 c 0
 618 245 598 0 342 0 c 0
239 718 m 1
 206 760 l 1
 356 881 l 1
 485 759 l 1
 449 719 l 1
 354 806 l 1
 239 718 l 1
EndSplineSet
EndChar
StartChar: Udieresis
Encoding: 220 220 176
Width: 684
Flags: MW
HStem: 0 49<243.5 444 243.5 470> 799 20G<313 313 473 473>
VStem: 66 56<345.5 492 345.5 494> 562 56<360.5 472.5>
LayerCount: 2
Back
Fore
SplineSet
342 0 m 0
 105 0 66 197 66 459 c 0
 66 529 67 640 68 670 c 1
 125 680 l 1
 124 658 122 534 122 450 c 0
 122 241 145 49 342 49 c 0
 546 49 562 260 562 431 c 0
 562 514 561 634 560 669 c 1
 616 680 l 1
 617 656 618 550 618 476 c 0
 618 245 598 0 342 0 c 0
313 819 m 1
 305 737 l 1
 231 727 l 1
 240 809 l 1
 313 819 l 1
473 819 m 1
 465 737 l 1
 391 727 l 1
 400 809 l 1
 473 819 l 1
EndSplineSet
EndChar
StartChar: Yacute
Encoding: 221 221 177
Width: 628
Flags: MW
HStem: 0 21G<164 226 164 164> 873 20G<386 386>
LayerCount: 2
Back
Fore
SplineSet
322 266 m 1
 566 677 l 1
 628 677 l 1
 226 0 l 1
 164 0 l 1
 290 214 l 1
 20 677 l 1
 82 677 l 1
 322 266 l 1
236 771 m 1
 386 893 l 1
 439 848 l 1
 277 736 l 1
 236 771 l 1
EndSplineSet
EndChar
StartChar: Thorn
Encoding: 222 222 241
Width: 506
Flags: MW
HStem: 0 21G<65 65> 143 59<118 119> 519 57<120 189 120 208.5> 666 20G<120 120>
VStem: 65 54<202 202 202 674> 421 55<322.5 430>
LayerCount: 2
Back
Fore
SplineSet
65 674 m 1
 120 686 l 1
 120 576 l 1
 258 576 476 560 476 377 c 0
 476 199 262 152 118 143 c 1
 118 12 l 1
 65 0 l 1
 65 674 l 1
119 202 m 1
 295 210 421 268 421 377 c 0
 421 483 297 519 120 519 c 1
 119 202 l 1
EndSplineSet
EndChar
StartChar: germandbls
Encoding: 223 223 179
Width: 525
Flags: MW
HStem: -24 52<266 317 266 332.5> 588 52<197.5 258.5>
VStem: 65 52<26 477 26 477 26 522> 338 52<455 507.5> 423 52<134 210>
LayerCount: 2
Back
Fore
SplineSet
341 361 m 1
 419 335 475 263 475 175 c 0
 475 68 387 -24 278 -24 c 0
 245 -24 214 -16 166 10 c 1
 190 56 l 1
 230 34 254 28 278 28 c 0
 356 28 423 94 423 174 c 0
 423 246 366 320 281 320 c 0
 273 320 265 319 204 310 c 1
 220 364 l 1
 312 377 338 429 338 477 c 0
 338 538 289 588 228 588 c 0
 167 588 117 538 117 477 c 2
 117 26 l 1
 65 0 l 1
 65 477 l 2
 65 567 138 640 228 640 c 0
 317 640 390 567 390 477 c 0
 390 433 371 392 341 361 c 1
EndSplineSet
EndChar
StartChar: agrave
Encoding: 224 224 242
Width: 504
Flags: MW
HStem: 0 21G<383 383> 7 55<236 266 236 266> 458 55<223.5 309> 711 20G<217 217>
VStem: 50 57<189 267 189 274.5> 383 56<11 54 54 54>
LayerCount: 2
Back
Fore
SplineSet
344 585 m 1x7c
 298 557 l 1
 158 697 l 1
 217 731 l 1
 344 585 l 1x7c
439 472 m 1
 439 11 l 1
 383 0 l 1xbc
 383 54 l 1
 348 33 294 7 238 7 c 0
 129 7 50 95 50 223 c 0
 50 326 114 513 287 513 c 0
 342 513 394 495 439 472 c 1
236 62 m 0x7c
 296 62 359 103 381 120 c 1
 386 436 l 1
 367 444 326 458 292 458 c 0
 155 458 107 309 107 225 c 0
 107 153 141 64 236 62 c 0x7c
EndSplineSet
EndChar
StartChar: acircumflex
Encoding: 226 226 182
Width: 504
Flags: MW
HStem: 0 21G<383 383> 7 55<236 266 236 266> 458 55<223.5 309> 692 20G<292 292>
VStem: 50 57<189 267 189 274.5> 383 56<11 54 54 54>
LayerCount: 2
Back
Fore
SplineSet
439 472 m 1x7c
 439 11 l 1
 383 0 l 1xbc
 383 54 l 1
 348 33 294 7 238 7 c 0
 129 7 50 95 50 223 c 0
 50 326 114 513 287 513 c 0
 342 513 394 495 439 472 c 1x7c
236 62 m 0x7c
 296 62 359 103 381 120 c 1
 386 436 l 1
 367 444 326 458 292 458 c 0
 155 458 107 309 107 225 c 0
 107 153 141 64 236 62 c 0x7c
174 549 m 1
 141 591 l 1
 292 712 l 1
 421 590 l 1
 385 550 l 1
 289 637 l 1
 174 549 l 1
EndSplineSet
EndChar
StartChar: atilde
Encoding: 227 227 243
Width: 513
Flags: MW
HStem: 0 21G<383 383> 7 55<236 266 236 266> 458 55<223.5 309> 556 41<326.5 351.5 326.5 360.5> 664 41<183.5 207.5>
VStem: 50 57<189 267 189 274.5> 383 56<11 54 54 54>
LayerCount: 2
Back
Fore
SplineSet
439 472 m 1x7e
 439 11 l 1
 383 0 l 1xbe
 383 54 l 1
 348 33 294 7 238 7 c 0
 129 7 50 95 50 223 c 0
 50 326 114 513 287 513 c 0
 342 513 394 495 439 472 c 1x7e
236 62 m 0x7e
 296 62 359 103 381 120 c 1
 386 436 l 1
 367 444 326 458 292 458 c 0
 155 458 107 309 107 225 c 0
 107 153 141 64 236 62 c 0x7e
335 597 m 0
 368 597 390 659 399 688 c 1
 448 672 l 1
 433 607 386 556 335 556 c 0
 290 556 266 588 246 616 c 0
 227 642 216 664 199 664 c 0
 168 664 144 605 138 580 c 1
 89 598 l 1
 105 648 138 705 199 705 c 0
 245 705 269 672 288 646 c 0
 307 620 318 597 335 597 c 0
EndSplineSet
EndChar
StartChar: adieresis
Encoding: 228 228 184
Width: 504
Flags: MW
HStem: 0 21G<383 383> 7 55<236 266 236 266> 458 55<223.5 309> 643 20G<244 244 404 404>
VStem: 50 57<189 267 189 274.5> 383 56<11 54 54 54>
LayerCount: 2
Back
Fore
SplineSet
439 472 m 1x7c
 439 11 l 1
 383 0 l 1xbc
 383 54 l 1
 348 33 294 7 238 7 c 0
 129 7 50 95 50 223 c 0
 50 326 114 513 287 513 c 0
 342 513 394 495 439 472 c 1x7c
236 62 m 0x7c
 296 62 359 103 381 120 c 1
 386 436 l 1
 367 444 326 458 292 458 c 0
 155 458 107 309 107 225 c 0
 107 153 141 64 236 62 c 0x7c
244 663 m 1
 236 581 l 1
 162 571 l 1
 171 653 l 1
 244 663 l 1
404 663 m 1
 396 581 l 1
 322 571 l 1
 331 653 l 1
 404 663 l 1
EndSplineSet
EndChar
StartChar: aring
Encoding: 229 229 244
Width: 504
Flags: MW
HStem: 0 21G<383 383> 7 55<236 266 236 266> 458 55<223.5 309> 563 47<249 283.5 249 297.5> 736 46<273 301>
VStem: 50 57<189 267 189 274.5> 150 42<647 681.5 647 697.5> 357 42<654.5 694> 383 56<11 54 54 54>
LayerCount: 2
Back
Fore
SplineSet
264 563 m 0x7f
 195 563 150 615 150 666 c 0
 150 729 212 778 273 782 c 1
 338 782 399 747 399 680 c 0
 399 610 331 563 264 563 c 0x7f
282 736 m 0
 231 736 192 697 192 666 c 0
 192 628 232 610 266 610 c 0
 301 610 357 632 357 677 c 0
 357 711 320 736 282 736 c 0
439 472 m 1x7e80
 439 11 l 1
 383 0 l 1xbe80
 383 54 l 1
 348 33 294 7 238 7 c 0
 129 7 50 95 50 223 c 0
 50 326 114 513 287 513 c 0
 342 513 394 495 439 472 c 1x7e80
236 62 m 0x7f
 296 62 359 103 381 120 c 1
 386 436 l 1
 367 444 326 458 292 458 c 0
 155 458 107 309 107 225 c 0
 107 153 141 64 236 62 c 0x7f
EndSplineSet
EndChar
StartChar: ae
Encoding: 230 230 245
Width: 864
Flags: MW
HStem: 0 21G<383 383 590.5 661.5> 7 44 458 44 493 20G<200.5 314.5>
VStem: 50 57<189 267 189 274.5> 383 56<11 54 54 54>
LayerCount: 2
Back
Fore
SplineSet
629 0 m 0xac
 552 0 483 37 439 95 c 1
 439 11 l 1
 383 0 l 1xac
 383 54 l 1
 348 33 294 7 238 7 c 0
 129 7 50 95 50 223 c 0
 50 326 114 513 287 513 c 0x5c
 342 513 394 495 439 472 c 1
 439 406 l 1
 483 464 551 502 629 502 c 0
 718 502 791 435 814 355 c 1
 460 159 l 1
 491 95 555 51 629 51 c 0x6c
 680 51 728 72 765 111 c 1
 802 76 l 1
 756 27 694 0 629 0 c 0xac
236 62 m 0
 296 62 359 103 381 120 c 1
 386 436 l 1
 367 444 326 458 292 458 c 0
 155 458 107 309 107 225 c 0
 107 153 141 64 236 62 c 0
630 451 m 0
 521 451 439 357 439 251 c 0
 439 236 441 222 444 208 c 1
 748 378 l 1
 722 424 677 451 630 451 c 0
EndSplineSet
EndChar
StartChar: ccedilla
Encoding: 231 231 187
Width: 507
Flags: MW
HStem: -201 42<260 281.5 260 293> -61 42<261.5 281.5> 0 52 450 52<226.5 299>
VStem: 51 53<163.5 263.5 148 272.5> 317 42<-123.5 -96.5>
LayerCount: 2
Back
Fore
SplineSet
268 -159 m 0
 295 -159 317 -137 317 -110 c 0
 317 -83 295 -61 268 -61 c 0
 255 -61 241 -67 236 -72 c 1
 207 -42 l 1
 224 5 l 1
 128 26 51 111 51 216 c 0
 51 329 138 502 274 502 c 0
 338 502 391 477 426 430 c 1
 386 391 l 1
 363 429 322 450 276 450 c 0
 177 450 104 309 104 218 c 0
 104 78 229 50 277 52 c 0
 339 55 391 88 417 137 c 1
 457 97 l 1
 420 41 355 3 279 0 c 2
 258 0 l 1
 257 -19 l 1
 261 -19 l 2
 317 -19 359 -55 359 -110 c 0
 359 -160 318 -201 268 -201 c 0
 239 -201 213 -188 196 -166 c 1
 226 -136 l 1
 231 -149 252 -159 268 -159 c 0
EndSplineSet
EndChar
StartChar: eacute
Encoding: 233 233 189
Width: 527
Flags: MW
HStem: 0 51<255 317.5 255 324.5> 451 51<237.5 315.5> 704 20G<318 318>
VStem: 50 51<243.5 304 243.5 319.5>
LayerCount: 2
Back
Fore
SplineSet
292 0 m 0
 158 0 50 113 50 251 c 0
 50 388 157 502 292 502 c 0
 381 502 454 435 477 355 c 1
 123 159 l 1
 154 95 218 51 292 51 c 0
 343 51 391 72 428 111 c 1
 465 76 l 1
 419 27 357 0 292 0 c 0
292 451 m 0
 183 451 101 357 101 251 c 0
 101 236 103 222 106 208 c 1
 410 378 l 1
 384 424 339 451 292 451 c 0
168 602 m 1
 318 724 l 1
 370 679 l 1
 208 567 l 1
 168 602 l 1
EndSplineSet
EndChar
StartChar: ecircumflex
Encoding: 234 234 247
Width: 527
Flags: MW
HStem: 0 51<255 317.5 255 324.5> 451 51<237.5 315.5> 692 20G<275 275>
VStem: 50 51<243.5 304 243.5 319.5>
LayerCount: 2
Back
Fore
SplineSet
292 0 m 0
 158 0 50 113 50 251 c 0
 50 388 157 502 292 502 c 0
 381 502 454 435 477 355 c 1
 123 159 l 1
 154 95 218 51 292 51 c 0
 343 51 391 72 428 111 c 1
 465 76 l 1
 419 27 357 0 292 0 c 0
292 451 m 0
 183 451 101 357 101 251 c 0
 101 236 103 222 106 208 c 1
 410 378 l 1
 384 424 339 451 292 451 c 0
158 549 m 1
 125 591 l 1
 275 712 l 1
 404 590 l 1
 368 550 l 1
 272 637 l 1
 158 549 l 1
EndSplineSet
EndChar
StartChar: edieresis
Encoding: 235 235 191
Width: 527
Flags: MW
HStem: 0 51<255 317.5 255 324.5> 451 51<237.5 315.5> 643 20G<240 240 400 400>
VStem: 50 51<243.5 304 243.5 319.5>
LayerCount: 2
Back
Fore
SplineSet
292 0 m 0
 158 0 50 113 50 251 c 0
 50 388 157 502 292 502 c 0
 381 502 454 435 477 355 c 1
 123 159 l 1
 154 95 218 51 292 51 c 0
 343 51 391 72 428 111 c 1
 465 76 l 1
 419 27 357 0 292 0 c 0
292 451 m 0
 183 451 101 357 101 251 c 0
 101 236 103 222 106 208 c 1
 410 378 l 1
 384 424 339 451 292 451 c 0
240 663 m 1
 232 581 l 1
 158 571 l 1
 167 653 l 1
 240 663 l 1
400 663 m 1
 392 581 l 1
 318 571 l 1
 327 653 l 1
 400 663 l 1
EndSplineSet
EndChar
StartChar: igrave
Encoding: 236 236 248
Width: 217
Flags: MW
HStem: 0 21G<77 77> 711 20G<61 61>
VStem: 77 59<10 491 491 491>
LayerCount: 2
Back
Fore
SplineSet
187 585 m 1
 141 557 l 1
 1 697 l 1
 61 731 l 1
 187 585 l 1
77 491 m 1
 136 500 l 1
 136 10 l 1
 77 0 l 1
 77 491 l 1
EndSplineSet
EndChar
StartChar: iacute
Encoding: 237 237 193
Width: 205
Flags: MW
HStem: 0 21G<65 65> 704 20G<174 174>
VStem: 65 59<10 491 491 491>
LayerCount: 2
Back
Fore
SplineSet
65 491 m 1
 124 500 l 1
 124 10 l 1
 65 0 l 1
 65 491 l 1
24 602 m 1
 174 724 l 1
 226 679 l 1
 64 567 l 1
 24 602 l 1
EndSplineSet
EndChar
StartChar: icircumflex
Encoding: 238 238 194
Width: 246
Flags: MW
HStem: 0 21G<98 98> 692 20G<144 144>
VStem: 98 59<10 491 491 491>
LayerCount: 2
Back
Fore
SplineSet
98 491 m 1
 157 500 l 1
 157 10 l 1
 98 0 l 1
 98 491 l 1
27 549 m 1
 -6 591 l 1
 144 712 l 1
 273 590 l 1
 237 550 l 1
 141 637 l 1
 27 549 l 1
EndSplineSet
EndChar
StartChar: idieresis
Encoding: 239 239 249
Width: 246
Flags: MW
HStem: 0 21G<93 93> 643 20G<95 95 255 255>
VStem: 93 59<10 491 491 491>
LayerCount: 2
Back
Fore
SplineSet
93 491 m 1
 152 500 l 1
 152 10 l 1
 93 0 l 1
 93 491 l 1
95 663 m 1
 87 581 l 1
 13 571 l 1
 22 653 l 1
 95 663 l 1
255 663 m 1
 247 581 l 1
 173 571 l 1
 182 653 l 1
 255 663 l 1
EndSplineSet
EndChar
StartChar: eth
Encoding: 240 240 250
Width: 482
Flags: MW
HStem: 0 51<182.5 267.5 182.5 282.5> 385 50 654 20G<371 371>
VStem: 50 51<137.5 249.5 137.5 252.5> 381 51<208 279.5>
LayerCount: 2
Back
Fore
SplineSet
275 583 m 1
 356 497 432 381 432 255 c 0
 432 128 350 0 215 0 c 0
 122 0 50 72 50 177 c 0
 50 328 161 429 323 435 c 1
 295 482 260 524 230 557 c 1
 179 529 122 492 112 484 c 1
 93 520 l 1
 125 541 169 568 201 587 c 1
 179 608 158 627 154 630 c 1
 187 668 l 1
 198 660 225 635 247 613 c 1
 283 633 333 659 371 674 c 1
 385 638 l 1
 357 626 309 602 275 583 c 1
215 51 m 0
 320 51 381 158 381 258 c 0
 381 301 369 345 350 385 c 1
 209 385 101 323 101 176 c 0
 101 99 150 51 215 51 c 0
EndSplineSet
EndChar
StartChar: ntilde
Encoding: 241 241 251
Width: 536
Flags: MW
HStem: 0 21G<65 65 417 417> 446 55<304 347.5> 556 41<349.5 374.5 349.5 383.5> 664 41<206.5 230.5>
VStem: 65 56<112 147 297 492 492 492> 416 54<114 115>
LayerCount: 2
Back
Fore
SplineSet
121 502 m 1
 121 297 l 1
 142 411 225 501 326 501 c 0
 394 501 436 465 454 393 c 0
 469 332 469 248 470 115 c 2
 471 12 l 1
 417 0 l 1
 416 114 l 2
 415 226 416 322 401 379 c 0
 389 428 369 446 326 446 c 0
 282 446 229 426 176 327 c 0
 143 265 121 182 121 112 c 2
 120 11 l 1
 65 0 l 1
 65 492 l 1
 121 502 l 1
358 597 m 0
 391 597 413 659 422 688 c 1
 471 672 l 1
 456 607 409 556 358 556 c 0
 313 556 289 588 269 616 c 0
 250 642 239 664 222 664 c 0
 191 664 167 605 161 580 c 1
 112 598 l 1
 128 648 161 705 222 705 c 0
 268 705 292 672 311 646 c 0
 330 620 341 597 358 597 c 0
EndSplineSet
EndChar
StartChar: oacute
Encoding: 243 243 199
Width: 535
Flags: MW
HStem: 0 48<208.5 297.5 208.5 315> 452 48<231.5 319.5> 704 20G<363 363>
VStem: 50 57<182.5 290.5 182.5 303> 427 58<207 315>
LayerCount: 2
Back
Fore
SplineSet
213 602 m 1
 363 724 l 1
 415 679 l 1
 253 567 l 1
 213 602 l 1
252 0 m 0
 137 0 50 104 50 230 c 0
 50 376 157 500 283 500 c 0
 397 500 485 394 485 270 c 0
 485 123 378 0 252 0 c 0
278 452 m 0
 185 452 107 349 107 232 c 0
 107 133 165 48 252 48 c 0
 343 48 427 149 427 265 c 0
 427 365 361 452 278 452 c 0
EndSplineSet
EndChar
StartChar: otilde
Encoding: 245 245 253
Width: 535
Flags: MW
HStem: 0 48<208.5 297.5 208.5 315> 452 48<231.5 319.5> 556 41<346.5 371.5 346.5 380.5> 664 41<203.5 227.5>
VStem: 50 57<182.5 290.5 182.5 303> 427 58<207 315>
LayerCount: 2
Back
Fore
SplineSet
355 597 m 0
 388 597 410 659 419 688 c 1
 468 672 l 1
 453 607 406 556 355 556 c 0
 310 556 286 588 266 616 c 0
 247 642 236 664 219 664 c 0
 188 664 164 605 158 580 c 1
 109 598 l 1
 125 648 158 705 219 705 c 0
 265 705 289 672 308 646 c 0
 327 620 338 597 355 597 c 0
252 0 m 0
 137 0 50 104 50 230 c 0
 50 376 157 500 283 500 c 0
 397 500 485 394 485 270 c 0
 485 123 378 0 252 0 c 0
278 452 m 0
 185 452 107 349 107 232 c 0
 107 133 165 48 252 48 c 0
 343 48 427 149 427 265 c 0
 427 365 361 452 278 452 c 0
EndSplineSet
EndChar
StartChar: odieresis
Encoding: 246 246 202
Width: 535
Flags: MW
HStem: 0 48<208.5 297.5 208.5 315> 452 48<231.5 319.5> 643 20G<255 255 415 415>
VStem: 50 57<182.5 290.5 182.5 303> 427 58<207 315>
LayerCount: 2
Back
Fore
SplineSet
255 663 m 1
 247 581 l 1
 173 571 l 1
 182 653 l 1
 255 663 l 1
415 663 m 1
 407 581 l 1
 333 571 l 1
 342 653 l 1
 415 663 l 1
252 0 m 0
 137 0 50 104 50 230 c 0
 50 376 157 500 283 500 c 0
 397 500 485 394 485 270 c 0
 485 123 378 0 252 0 c 0
278 452 m 0
 185 452 107 349 107 232 c 0
 107 133 165 48 252 48 c 0
 343 48 427 149 427 265 c 0
 427 365 361 452 278 452 c 0
EndSplineSet
EndChar
StartChar: divide
Encoding: 247 247 203
Width: 407
Flags: MW
HStem: 132 21G<163 163> 234 52<54 353 64 343> 368 20G<242 242>
LayerCount: 2
Back
Fore
SplineSet
54 234 m 1
 64 286 l 1
 353 286 l 1
 343 234 l 1
 54 234 l 1
227 204 m 1
 221 140 l 1
 163 132 l 1
 170 196 l 1
 227 204 l 1
242 388 m 1
 236 324 l 1
 178 317 l 1
 185 380 l 1
 242 388 l 1
EndSplineSet
EndChar
StartChar: oslash
Encoding: 248 248 254
Width: 535
Flags: MW
HStem: -35 21G<123 123> 0 48<239.5 301.5 239.5 315> 452 48<231 288.5> 525 20G<403 403>
VStem: 50 57<207 289 207 302> 427 58<211.5 289>
LayerCount: 2
Back
Fore
SplineSet
408 451 m 1
 459 409 485 338 485 270 c 0
 485 123 378 0 252 0 c 0
 219 0 187 9 158 25 c 1
 123 -35 l 1
 79 -9 l 1
 118 56 l 1
 75 99 50 161 50 229 c 0
 50 375 156 500 283 500 c 0
 312 500 340 493 366 480 c 1
 403 545 l 1
 447 519 l 1
 408 451 l 1
145 104 m 1
 340 436 l 1
 320 446 299 452 278 452 c 0
 184 452 107 348 107 230 c 0
 107 184 121 138 145 104 c 1
252 48 m 0
 351 48 427 160 427 263 c 0
 427 315 409 367 379 402 c 1
 183 68 l 1
 204 55 227 48 252 48 c 0
EndSplineSet
EndChar
StartChar: ugrave
Encoding: 249 249 255
Width: 516
Flags: MW
HStem: -6 49<168 253.5 168 257> 711 20G<227 227>
VStem: 66 54<289 311.5> 395 56
LayerCount: 2
Back
Fore
SplineSet
353 585 m 1
 307 557 l 1
 167 697 l 1
 227 731 l 1
 353 585 l 1
120 289 m 0
 121 168 117 43 219 43 c 0
 288 43 359 92 380 116 c 0
 387 124 393 138 393 159 c 2
 398 494 l 1
 451 504 l 1
 451 10 l 1
 389 0 l 1
 389 74 l 1
 364 36 296 -6 218 -6 c 0
 65 -6 66 147 66 289 c 0
 66 334 70 426 82 494 c 1
 137 504 l 1
 134 488 120 374 120 289 c 0
EndSplineSet
EndChar
StartChar: ucircumflex
Encoding: 251 251 256
Width: 516
Flags: MW
HStem: -6 49<168 253.5 168 257> 692 20G<284 284>
VStem: 66 54<289 311.5> 395 56
LayerCount: 2
Back
Fore
SplineSet
120 289 m 0
 121 168 117 43 219 43 c 0
 288 43 359 92 380 116 c 0
 387 124 393 138 393 159 c 2
 398 494 l 1
 451 504 l 1
 451 10 l 1
 389 0 l 1
 389 74 l 1
 364 36 296 -6 218 -6 c 0
 65 -6 66 147 66 289 c 0
 66 334 70 426 82 494 c 1
 137 504 l 1
 134 488 120 374 120 289 c 0
166 549 m 1
 133 591 l 1
 284 712 l 1
 413 590 l 1
 377 550 l 1
 281 637 l 1
 166 549 l 1
EndSplineSet
EndChar
StartChar: udieresis
Encoding: 252 252 208
Width: 516
Flags: MW
HStem: -6 49<168 253.5 168 257> 643 20G<233 233 394 394>
VStem: 66 54<289 311.5> 395 56
LayerCount: 2
Back
Fore
SplineSet
120 289 m 0
 121 168 117 43 219 43 c 0
 288 43 359 92 380 116 c 0
 387 124 393 138 393 159 c 2
 398 494 l 1
 451 504 l 1
 451 10 l 1
 389 0 l 1
 389 74 l 1
 364 36 296 -6 218 -6 c 0
 65 -6 66 147 66 289 c 0
 66 334 70 426 82 494 c 1
 137 504 l 1
 134 488 120 374 120 289 c 0
233 663 m 1
 225 581 l 1
 151 571 l 1
 160 653 l 1
 233 663 l 1
394 663 m 1
 386 581 l 1
 312 571 l 1
 321 653 l 1
 394 663 l 1
EndSplineSet
EndChar
StartChar: yacute
Encoding: 253 253 209
Width: 500
Flags: MW
HStem: -198 21G<168 168> 704 20G<310 310>
LayerCount: 2
Back
Fore
SplineSet
429 499 m 1
 480 475 l 1
 168 -198 l 1
 117 -174 l 1
 226 60 l 1
 20 473 l 1
 70 498 l 1
 256 126 l 1
 429 499 l 1
160 602 m 1
 310 724 l 1
 363 679 l 1
 201 567 l 1
 160 602 l 1
EndSplineSet
EndChar
StartChar: thorn
Encoding: 254 254 258
Width: 528
Flags: MW
HStem: -185 21G<121 121> 0 54<233 314 222.5 365> 433 56<262.5 354> 671 20G<121 121>
VStem: 65 56<-175 28 -185 81 81 290 408 680 680 680> 425 53<240.5 297.5>
LayerCount: 2
Back
Fore
SplineSet
303 489 m 0
 436 489 478 371 478 267 c 0
 478 214 471 0 259 0 c 0
 207 0 152 15 121 28 c 1
 121 -185 l 1
 65 -175 l 1
 65 680 l 1
 121 691 l 1
 121 408 l 1
 152 452 222 489 303 489 c 0
251 54 m 0
 377 54 425 140 425 267 c 0
 425 328 401 433 307 433 c 0
 200 433 121 369 121 290 c 2
 121 81 l 1
 139 72 194 54 251 54 c 0
EndSplineSet
EndChar
StartChar: ydieresis
Encoding: 255 255 257
Width: 500
Flags: MW
HStem: -197 21G<168 168> 643 20G<217 217 377 377>
LayerCount: 2
Back
Fore
SplineSet
429 500 m 1
 480 476 l 1
 168 -197 l 1
 117 -173 l 1
 226 61 l 1
 20 474 l 1
 70 499 l 1
 256 127 l 1
 429 500 l 1
217 663 m 1
 209 581 l 1
 135 571 l 1
 144 653 l 1
 217 663 l 1
377 663 m 1
 369 581 l 1
 295 571 l 1
 304 653 l 1
 377 663 l 1
EndSplineSet
EndChar
StartChar: Abreve
Encoding: 258 258 151
Width: 623
Flags: MW
HStem: 0 21G<99 99> 739 46<317.5 366.5> 843 20G<446 446>
LayerCount: 2
Back
Fore
SplineSet
360 680 m 1
 573 33 l 1
 526 1 l 1
 440 261 l 1
 176 206 l 1
 99 0 l 1
 50 26 l 1
 112 192 l 1
 71 184 l 1
 60 238 l 1
 135 253 l 1
 290 667 l 1
 360 680 l 1
199 267 m 1
 423 313 l 1
 326 607 l 1
 199 267 l 1
336 785 m 0
 399 785 428 814 446 863 c 1
 477 832 l 1
 458 777 398 739 335 739 c 0
 265 739 207 775 183 828 c 1
 213 858 l 1
 247 797 299 785 336 785 c 0
EndSplineSet
EndChar
StartChar: abreve
Encoding: 259 259 183
Width: 504
Flags: MW
HStem: 0 21G<383 383> 7 55<236 266 236 266> 458 55<223.5 309> 559 46<267.5 316.5> 663 20G<396 396>
VStem: 50 57<189 267 189 274.5> 383 56<11 54 54 54>
LayerCount: 2
Back
Fore
SplineSet
439 472 m 1x7e
 439 11 l 1
 383 0 l 1xbe
 383 54 l 1
 348 33 294 7 238 7 c 0
 129 7 50 95 50 223 c 0
 50 326 114 513 287 513 c 0
 342 513 394 495 439 472 c 1x7e
236 62 m 0x7e
 296 62 359 103 381 120 c 1
 386 436 l 1
 367 444 326 458 292 458 c 0
 155 458 107 309 107 225 c 0
 107 153 141 64 236 62 c 0x7e
286 605 m 0
 349 605 378 634 396 683 c 1
 427 652 l 1
 408 597 348 559 285 559 c 0
 215 559 157 595 133 648 c 1
 163 678 l 1
 197 617 249 605 286 605 c 0
EndSplineSet
EndChar
StartChar: Aogonek
Encoding: 260 260 116
Width: 637
Flags: MW
HStem: -201 43<524 557 524 561.5> 660 20G<360 360>
VStem: 438 42<-118 -79 -118 -73.5>
LayerCount: 2
Back
Fore
SplineSet
579 15 m 1
 543 -11 l 2
 519 -29 480 -57 480 -101 c 0
 480 -135 507 -158 541 -158 c 0
 573 -158 592 -145 615 -127 c 1
 639 -159 l 1
 622 -180 582 -201 541 -201 c 0
 482 -201 438 -158 438 -100 c 0
 438 -47 479 -2 518 24 c 1
 440 261 l 1
 176 206 l 1
 99 0 l 1
 50 26 l 1
 112 192 l 1
 71 184 l 1
 60 238 l 1
 135 253 l 1
 290 667 l 1
 360 680 l 1
 579 15 l 1
199 267 m 1
 423 313 l 1
 326 607 l 1
 199 267 l 1
EndSplineSet
EndChar
StartChar: aogonek
Encoding: 261 261 133
Width: 510
Flags: MW
HStem: -201 43<385 418 385 422.5> 7 55<236 266 236 266> 458 55<223.5 309>
VStem: 50 57<189 267 189 274.5> 299 42<-118 -79 -118 -73> 383 56<26 54 54 54>
LayerCount: 2
Back
Fore
SplineSet
439 15 m 1
 404 -11 l 2
 381 -28 341 -57 341 -101 c 0
 341 -135 368 -158 402 -158 c 0
 434 -158 453 -145 476 -127 c 1
 500 -159 l 1
 483 -180 443 -201 402 -201 c 0
 343 -201 299 -158 299 -100 c 0
 299 -46 343 0 383 26 c 1
 383 54 l 1
 348 33 294 7 238 7 c 0
 129 7 50 95 50 223 c 0
 50 326 114 513 287 513 c 0
 342 513 394 495 439 472 c 1
 439 15 l 1
236 62 m 0
 296 62 359 103 381 120 c 1
 386 436 l 1
 367 444 326 458 292 458 c 0
 155 458 107 309 107 225 c 0
 107 153 141 64 236 62 c 0
EndSplineSet
EndChar
StartChar: Ccaron
Encoding: 268 268 156
Width: 631
Flags: MW
HStem: -1 53<270 381 270 386> 628 53<274.5 374 257.5 380.5> 861 20G<457 457>
VStem: 51 52<227 359.5 227 371.5>
LayerCount: 2
Back
Fore
SplineSet
334 -1 m 0
 180 -1 51 125 51 291 c 0
 51 452 169 681 346 681 c 0
 402 681 453 665 493 635 c 1
 493 658 l 1
 539 658 l 1
 539 539 l 1
 493 539 l 1
 493 564 l 1
 466 594 421 628 340 628 c 0
 209 628 103 426 103 293 c 0
 103 161 206 52 334 52 c 0
 428 52 503 94 542 170 c 1
 581 131 l 1
 531 49 438 -1 334 -1 c 0
457 881 m 1
 490 838 l 1
 339 718 l 1
 210 840 l 1
 246 880 l 1
 342 792 l 1
 457 881 l 1
EndSplineSet
EndChar
StartChar: ccaron
Encoding: 269 269 188
Width: 507
Flags: MW
HStem: 0 52 450 52<226.5 299> 692 20G<397 397>
VStem: 51 53<154 263.5 148 272.5>
LayerCount: 2
Back
Fore
SplineSet
277 52 m 0
 339 55 391 88 417 137 c 1
 457 97 l 1
 420 41 355 3 279 0 c 0
 160 -6 51 92 51 216 c 0
 51 329 138 502 274 502 c 0
 338 502 391 477 426 430 c 1
 386 391 l 1
 363 429 322 450 276 450 c 0
 177 450 104 309 104 218 c 0
 104 78 229 50 277 52 c 0
397 712 m 1
 430 669 l 1
 280 549 l 1
 151 671 l 1
 187 711 l 1
 283 623 l 1
 397 712 l 1
EndSplineSet
EndChar
StartChar: dcaron
Encoding: 271 271 195
Width: 609
Flags: MW
HStem: 0 21G<389 389> 6 49<173.5 260.5> 442 53<197 293.5> 677 20G<461 461>
VStem: 51 55<196 270.5> 401 52
LayerCount: 2
Back
Fore
SplineSet
564 691 m 1x7c
 634 652 l 1
 541 486 l 1
 492 514 l 1
 546 610 l 1
 507 632 l 1
 564 691 l 1x7c
404 687 m 1
 461 697 l 1
 445 10 l 1
 389 0 l 1xbc
 391 80 l 1
 356 48 300 6 221 6 c 0
 104 6 51 117 51 226 c 0
 51 315 78 495 270 495 c 0
 325 495 367 479 399 464 c 1
 404 687 l 1
393 162 m 2
 398 404 l 1
 380 414 323 442 264 442 c 0
 130 442 106 314 106 229 c 0
 106 163 126 55 221 55 c 0x7c
 323 55 392 131 393 162 c 2
EndSplineSet
EndChar
StartChar: dcroat
Encoding: 273 273 196
Width: 550
Flags: MW
HStem: 0 21G<389 389> 6 49<173.5 260.5> 442 53<197 293.5> 553 52<313 401 303 402 459 549> 677 20G<461 461>
VStem: 51 55<196 270.5> 400 51
LayerCount: 2
Back
Fore
SplineSet
404 687 m 1x7e
 461 697 l 1
 459 605 l 1
 559 605 l 1
 549 553 l 1
 457 553 l 1
 445 10 l 1
 389 0 l 1xbe
 391 80 l 1
 356 48 300 6 221 6 c 0
 104 6 51 117 51 226 c 0
 51 315 78 495 270 495 c 0
 325 495 367 479 399 464 c 1
 401 553 l 1
 303 553 l 1
 313 605 l 1
 402 605 l 1
 404 687 l 1x7e
393 162 m 2
 398 404 l 1
 380 414 323 442 264 442 c 0
 130 442 106 314 106 229 c 0
 106 163 126 55 221 55 c 0x7e
 323 55 392 131 393 162 c 2
EndSplineSet
EndChar
StartChar: Eogonek
Encoding: 280 280 158
Width: 611
Flags: MW
HStem: -201 43<447 480 447 484.5> 0 56<121 411 481 481 481 531> 326 56<121 489 121 506> 625 56<121 536 121 121>
VStem: 65 56<56 326 382 625> 361 42<-118 -80.5>
LayerCount: 2
Back
Fore
SplineSet
538 -127 m 1
 562 -159 l 1
 545 -180 505 -201 464 -201 c 0
 405 -201 361 -158 361 -100 c 0
 361 -61 383 -26 411 0 c 1
 65 0 l 1
 65 681 l 1
 546 681 l 1
 536 625 l 1
 121 625 l 1
 121 382 l 1
 506 382 l 1
 489 326 l 1
 121 326 l 1
 121 56 l 1
 551 56 l 1
 531 0 l 1
 481 0 l 1
 466 -11 l 2
 441 -30 403 -57 403 -101 c 0
 403 -135 430 -158 464 -158 c 0
 496 -158 515 -145 538 -127 c 1
EndSplineSet
EndChar
StartChar: eogonek
Encoding: 281 281 190
Width: 527
Flags: MW
HStem: -201 43<305 338 305 342.5> 451 51<237.5 315.5>
VStem: 50 51<243.5 304 243.5 319.5> 219 42<-118 -80>
LayerCount: 2
Back
Fore
SplineSet
396 -127 m 1
 420 -159 l 1
 403 -180 363 -201 322 -201 c 0
 263 -201 219 -158 219 -100 c 0
 219 -60 242 -25 270 1 c 1
 146 12 50 120 50 251 c 0
 50 388 157 502 292 502 c 0
 381 502 454 435 477 355 c 1
 123 159 l 1
 154 95 218 51 292 51 c 0
 343 51 391 72 428 111 c 1
 465 76 l 1
 447 54 418 37 387 21 c 0
 327 -10 261 -39 261 -101 c 0
 261 -135 288 -158 322 -158 c 0
 354 -158 373 -145 396 -127 c 1
292 451 m 0
 183 451 101 357 101 251 c 0
 101 236 103 222 106 208 c 1
 410 378 l 1
 384 424 339 451 292 451 c 0
EndSplineSet
EndChar
StartChar: Ecaron
Encoding: 282 282 160
Width: 611
Flags: MW
HStem: 0 56<121 531> 326 56<121 489 121 506> 625 56<121 536 121 121> 861 20G<414 414>
VStem: 65 56<56 56 56 326 382 625>
LayerCount: 2
Back
Fore
SplineSet
121 56 m 1
 551 56 l 1
 531 0 l 1
 65 0 l 1
 65 681 l 1
 546 681 l 1
 536 625 l 1
 121 625 l 1
 121 382 l 1
 506 382 l 1
 489 326 l 1
 121 326 l 1
 121 56 l 1
414 881 m 1
 447 838 l 1
 296 718 l 1
 167 840 l 1
 203 880 l 1
 299 792 l 1
 414 881 l 1
EndSplineSet
EndChar
StartChar: ecaron
Encoding: 283 283 192
Width: 527
Flags: MW
HStem: 0 51<255 317.5 255 324.5> 451 51<237.5 315.5> 692 20G<393 393>
VStem: 50 51<243.5 304 243.5 319.5>
LayerCount: 2
Back
Fore
SplineSet
292 0 m 0
 158 0 50 113 50 251 c 0
 50 388 157 502 292 502 c 0
 381 502 454 435 477 355 c 1
 123 159 l 1
 154 95 218 51 292 51 c 0
 343 51 391 72 428 111 c 1
 465 76 l 1
 419 27 357 0 292 0 c 0
292 451 m 0
 183 451 101 357 101 251 c 0
 101 236 103 222 106 208 c 1
 410 378 l 1
 384 424 339 451 292 451 c 0
393 712 m 1
 426 669 l 1
 275 549 l 1
 146 671 l 1
 182 711 l 1
 278 623 l 1
 393 712 l 1
EndSplineSet
EndChar
StartChar: Lacute
Encoding: 313 313 153
Width: 487
Flags: MW
HStem: 0 21G<65 65> 14 58 873 20G<263 263>
VStem: 65 56<60 668 668 668>
LayerCount: 2
Back
Fore
SplineSet
65 0 m 1
 65 668 l 1
 121 678 l 1
 121 60 l 1
 462 85 l 1
 466 29 l 1
 65 0 l 1
113 771 m 1
 263 893 l 1
 315 848 l 1
 153 736 l 1
 113 771 l 1
EndSplineSet
EndChar
StartChar: lacute
Encoding: 314 314 185
Width: 226
Flags: MW
HStem: 0 21G<85 85> 873 20G<190 190>
VStem: 85 56<10 681 681 681>
LayerCount: 2
Back
Fore
SplineSet
85 681 m 1
 141 692 l 1
 141 10 l 1
 85 0 l 1
 85 681 l 1
40 771 m 1
 190 893 l 1
 242 848 l 1
 80 736 l 1
 40 771 l 1
EndSplineSet
EndChar
StartChar: Lcaron
Encoding: 317 317 120
Width: 532
Flags: MW
HStem: 0 21G<110 110> 14 58 861 20G<311 311>
VStem: 110 56<60 668 668 668>
LayerCount: 2
Back
Fore
SplineSet
110 0 m 1
 110 668 l 1
 166 678 l 1
 166 60 l 1
 507 85 l 1
 511 29 l 1
 110 0 l 1
311 881 m 1
 344 838 l 1
 194 718 l 1
 65 840 l 1
 101 880 l 1
 197 792 l 1
 311 881 l 1
EndSplineSet
EndChar
StartChar: lcaron
Encoding: 318 318 137
Width: 290
Flags: MW
HStem: 0 21G<85 85> 674 20G<245 245>
VStem: 85 56<10 681 681 681>
LayerCount: 2
Back
Fore
SplineSet
85 681 m 1
 141 692 l 1
 141 10 l 1
 85 0 l 1
 85 681 l 1
245 694 m 1
 315 655 l 1
 222 489 l 1
 173 517 l 1
 227 613 l 1
 188 635 l 1
 245 694 l 1
EndSplineSet
EndChar
StartChar: Lslash
Encoding: 321 321 118
Width: 549
Flags: MW
HStem: 0 21G<127 127> 14 58 658 20G<183 183>
VStem: 127 56<60 295 295 295 397 668 668 668>
LayerCount: 2
Back
Fore
SplineSet
528 29 m 1x70
 127 0 l 1xb0
 127 295 l 1
 74 261 l 1
 42 308 l 1
 127 362 l 1
 127 668 l 1
 183 678 l 1
 183 397 l 1
 237 432 l 1
 268 384 l 1
 183 330 l 1
 183 60 l 1
 524 85 l 1
 528 29 l 1x70
EndSplineSet
EndChar
StartChar: lslash
Encoding: 322 322 135
Width: 266
Flags: MW
HStem: 0 21G<105 105> 672 20G<161 161>
VStem: 105 56<10 294 294 294 397 681 681 681>
LayerCount: 2
Back
Fore
SplineSet
246 384 m 1
 161 330 l 1
 161 10 l 1
 105 0 l 1
 105 294 l 1
 52 261 l 1
 20 308 l 1
 105 362 l 1
 105 681 l 1
 161 692 l 1
 161 397 l 1
 215 432 l 1
 246 384 l 1
EndSplineSet
EndChar
StartChar: Nacute
Encoding: 323 323 165
Width: 615
Flags: MW
HStem: 0 21G<486 486> 873 20G<357 357>
VStem: 65 54 497 53<88 671 671 671>
LayerCount: 2
Back
Fore
SplineSet
497 671 m 1
 550 681 l 1
 550 13 l 1
 486 0 l 1
 119 588 l 1
 119 12 l 1
 66 1 l 1
 65 664 l 1
 124 681 l 1
 497 88 l 1
 497 671 l 1
207 771 m 1
 357 893 l 1
 410 848 l 1
 248 736 l 1
 207 771 l 1
EndSplineSet
EndChar
StartChar: nacute
Encoding: 324 324 197
Width: 536
Flags: MW
HStem: 0 21G<65 65 417 417> 446 55<304 347.5> 704 20G<352 352>
VStem: 65 56<112 147 297 492 492 492> 416 54<114 115>
LayerCount: 2
Back
Fore
SplineSet
121 502 m 1
 121 297 l 1
 142 411 225 501 326 501 c 0
 394 501 436 465 454 393 c 0
 469 332 469 248 470 115 c 2
 471 12 l 1
 417 0 l 1
 416 114 l 2
 415 226 416 322 401 379 c 0
 389 428 369 446 326 446 c 0
 282 446 229 426 176 327 c 0
 143 265 121 182 121 112 c 2
 120 11 l 1
 65 0 l 1
 65 492 l 1
 121 502 l 1
202 602 m 1
 352 724 l 1
 404 679 l 1
 242 567 l 1
 202 602 l 1
EndSplineSet
EndChar
StartChar: Ncaron
Encoding: 327 327 166
Width: 615
Flags: MW
HStem: 0 21G<486 486> 861 20G<425 425>
VStem: 65 54 497 53<88 671 671 671>
LayerCount: 2
Back
Fore
SplineSet
497 671 m 1
 550 681 l 1
 550 13 l 1
 486 0 l 1
 119 588 l 1
 119 12 l 1
 66 1 l 1
 65 664 l 1
 124 681 l 1
 497 88 l 1
 497 671 l 1
425 881 m 1
 458 838 l 1
 307 718 l 1
 178 840 l 1
 214 880 l 1
 310 792 l 1
 425 881 l 1
EndSplineSet
EndChar
StartChar: Ohungarumlaut
Encoding: 336 336 169
Width: 660
Flags: MW
HStem: 0 52<252 370.5 252 387> 632 52<282.5 403.5> 873 20G<323 323 483 483>
VStem: 60 53<243 403 243 415> 547 53<280 432.5>
LayerCount: 2
Back
Fore
SplineSet
173 771 m 1
 323 893 l 1
 375 848 l 1
 213 736 l 1
 173 771 l 1
333 771 m 1
 483 893 l 1
 536 848 l 1
 373 736 l 1
 333 771 l 1
309 0 m 0
 164 0 60 145 60 315 c 0
 60 515 195 684 351 684 c 0
 495 684 600 541 600 369 c 0
 600 169 465 0 309 0 c 0
344 632 m 0
 221 632 113 491 113 315 c 0
 113 171 195 52 309 52 c 0
 432 52 547 195 547 365 c 0
 547 500 463 632 344 632 c 0
EndSplineSet
EndChar
StartChar: OE
Encoding: 338 338 223
Width: 1093
Flags: MW
HStem: 0 56<603 1013> 326 56<603 971 603 988> 625 56<603 1018 603 603> 664 20G<273 388.5>
VStem: 60 53<243 403 243 415> 547 56<56 56 56 162 162 162 382 432.5 567 625>
LayerCount: 2
Back
Fore
SplineSet
603 56 m 1xec
 1033 56 l 1
 1013 0 l 1
 547 0 l 1
 547 162 l 1
 494 65 405 0 309 0 c 0
 164 0 60 145 60 315 c 0
 60 515 195 684 351 684 c 0xdc
 426 684 505 641 547 567 c 1
 547 681 l 1
 1028 681 l 1
 1018 625 l 1
 603 625 l 1
 603 382 l 1
 988 382 l 1
 971 326 l 1
 603 326 l 1
 603 56 l 1xec
547 365 m 1
 547 500 463 632 344 632 c 0
 221 632 113 491 113 315 c 0
 113 171 195 52 309 52 c 0
 429 52 534 173 547 365 c 1
EndSplineSet
EndChar
StartChar: oe
Encoding: 339 339 224
Width: 911
Flags: MW
HStem: 0 51<639 701.5 639 708.5> 452 50
VStem: 50 57<182.5 290.5 182.5 303> 427 58<243.5 306 243.5 315>
LayerCount: 2
Back
Fore
SplineSet
676 51 m 0
 727 51 775 72 812 111 c 1
 849 76 l 1
 803 27 741 0 676 0 c 0
 579 0 496 59 457 144 c 1
 417 59 339 0 252 0 c 0
 137 0 50 104 50 230 c 0
 50 376 157 500 283 500 c 0
 360 500 430 451 464 372 c 1
 505 448 584 502 676 502 c 0
 758 502 838 435 861 355 c 1
 861 355 613 218 507 159 c 1
 538 95 602 51 676 51 c 0
427 265 m 0
 427 365 361 452 278 452 c 0
 185 452 107 349 107 232 c 0
 107 133 165 48 252 48 c 0
 341 48 427 150 427 265 c 0
485 251 m 0
 485 236 487 222 490 208 c 1
 794 378 l 1
 768 424 723 451 676 451 c 0
 570 451 485 361 485 251 c 0
EndSplineSet
EndChar
StartChar: racute
Encoding: 341 341 180
Width: 401
Flags: MW
HStem: 0 21G<65 65> 447 55<252 301> 704 20G<283 283>
VStem: 65 56<10 252 376 492 492 492> 320 55<389 412 412 422.5>
LayerCount: 2
Back
Fore
SplineSet
375 431 m 2
 375 389 l 1
 320 379 l 1
 320 412 l 2
 320 433 316 447 286 447 c 0
 215 447 121 348 121 252 c 2
 121 10 l 1
 65 0 l 1
 65 492 l 1
 121 502 l 1
 121 376 l 1
 152 430 211 502 293 502 c 0
 340 502 375 470 375 431 c 2
133 602 m 1
 283 724 l 1
 335 679 l 1
 173 567 l 1
 133 602 l 1
EndSplineSet
EndChar
StartChar: Rcaron
Encoding: 344 344 172
Width: 594
Flags: MW
HStem: 0 21G<65 65 501 501> 249 46 630 57<121 245 121 245> 861 20G<390 390>
VStem: 65 56<295 630 295 681 295 681> 467 55<434 513.5>
LayerCount: 2
Back
Fore
SplineSet
120 237 m 1
 120 10 l 1
 65 0 l 1
 65 681 l 1
 87 684 141 686 174 687 c 0
 316 687 522 658 522 476 c 0
 522 392 450 311 335 275 c 1
 392 240 471 172 544 37 c 1
 501 0 l 1
 423 151 336 213 288 238 c 0
 272 246 245 249 224 249 c 0
 200 249 154 244 120 237 c 1
121 630 m 1
 121 295 l 1
 318 302 467 374 467 470 c 0
 467 557 401 630 163 630 c 2
 121 630 l 1
390 881 m 1
 423 838 l 1
 272 718 l 1
 143 840 l 1
 179 880 l 1
 275 792 l 1
 390 881 l 1
EndSplineSet
EndChar
StartChar: rcaron
Encoding: 345 345 204
Width: 402
Flags: MW
HStem: 0 21G<65 65> 447 55<252 301> 692 20G<343 343>
VStem: 65 56<10 252 376 492 492 492> 320 55<389 412 412 422.5>
LayerCount: 2
Back
Fore
SplineSet
375 431 m 2
 375 389 l 1
 320 379 l 1
 320 412 l 2
 320 433 316 447 286 447 c 0
 215 447 121 348 121 252 c 2
 121 10 l 1
 65 0 l 1
 65 492 l 1
 121 502 l 1
 121 376 l 1
 152 430 211 502 293 502 c 0
 340 502 375 470 375 431 c 2
343 712 m 1
 376 669 l 1
 225 549 l 1
 96 671 l 1
 132 711 l 1
 228 623 l 1
 343 712 l 1
EndSplineSet
EndChar
StartChar: Scedilla
Encoding: 350 350 125
Width: 599
Flags: MW
HStem: -201 42<289 310.5 289 322> -61 42<290.5 310.5> -1 53<302 351 268 355.5> 631 50<278.5 358>
VStem: 96 64<480 533.5 480 578> 346 42<-123.5 -96.5> 483 55
LayerCount: 2
Back
Fore
SplineSet
297 -159 m 0
 324 -159 346 -137 346 -110 c 0
 346 -83 324 -61 297 -61 c 0
 284 -61 270 -67 265 -72 c 1
 236 -42 l 1
 252 3 l 1
 159 18 85 74 60 152 c 1
 121 162 l 1
 148 86 232 52 304 52 c 0
 398 52 475 105 475 197 c 0
 475 228 464 287 306 330 c 0
 209 356 96 410 96 507 c 0
 96 649 228 681 329 681 c 0
 419 681 535 649 535 539 c 0
 535 533 535 527 534 521 c 1
 482 510 l 1
 483 515 483 522 483 526 c 0
 483 609 387 631 329 631 c 0
 187 631 160 562 160 505 c 0
 160 455 214 416 319 387 c 0
 466 346 538 282 538 190 c 0
 538 60 406 -1 305 -1 c 0
 299 -1 293 -1 287 0 c 1
 286 -19 l 1
 290 -19 l 2
 346 -19 388 -55 388 -110 c 0
 388 -160 347 -201 297 -201 c 0
 268 -201 242 -188 225 -166 c 1
 255 -136 l 1
 260 -149 281 -159 297 -159 c 0
EndSplineSet
EndChar
StartChar: scedilla
Encoding: 351 351 142
Width: 460
Flags: MW
HStem: -201 42<233 254.5 233 266> -61 42<234.5 254.5> 0 50<231 234 231 231> 458 47<254 277>
VStem: 78 57<356 396 356 429.5> 290 42<-123.5 -96.5> 353 56<116 170.5>
LayerCount: 2
Back
Fore
SplineSet
241 -159 m 0
 268 -159 290 -137 290 -110 c 0
 290 -83 268 -61 241 -61 c 0
 228 -61 214 -67 209 -72 c 1
 180 -42 l 1
 196 3 l 1
 128 14 68 55 50 121 c 1
 105 130 l 1
 121 77 178 50 234 50 c 0
 297 50 353 88 353 144 c 0
 353 197 300 222 234 240 c 0
 161 259 78 299 78 376 c 0
 78 483 180 505 254 505 c 0
 311 505 407 486 407 397 c 0
 407 391 407 385 406 379 c 1
 357 369 l 1
 358 374 358 379 358 384 c 0
 358 440 300 458 254 458 c 0
 160 457 135 419 135 373 c 0
 135 339 172 312 247 292 c 0
 356 262 409 214 409 145 c 0
 409 31 291 0 234 0 c 2
 231 0 l 1
 230 -19 l 1
 234 -19 l 2
 290 -19 332 -55 332 -110 c 0
 332 -160 291 -201 241 -201 c 0
 212 -201 186 -188 169 -166 c 1
 199 -136 l 1
 204 -149 225 -159 241 -159 c 0
EndSplineSet
EndChar
StartChar: uni0162
Encoding: 354 354 178
Width: 522
Flags: MW
HStem: -224 21G<236 236> 625 56<10 225 10 512 282 282 282 512>
VStem: 225 57<10 625 10 625 10 625>
LayerCount: 2
Back
Fore
SplineSet
225 0 m 1
 225 625 l 1
 10 625 l 1
 10 681 l 1
 512 681 l 1
 512 625 l 1
 282 625 l 1
 282 10 l 1
 225 0 l 1
259 -19 m 1
 329 -58 l 1
 236 -224 l 1
 187 -196 l 1
 241 -100 l 1
 202 -78 l 1
 259 -19 l 1
EndSplineSet
EndChar
StartChar: uni0163
Encoding: 355 355 210
Width: 373
Flags: MW
HStem: -224 21G<166 166> 446 56<20 158 20 158 215 353> 651 20G<215 215>
VStem: 158 57<10 446 10 446 10 446 502 661 661 661>
LayerCount: 2
Back
Fore
SplineSet
353 502 m 1
 353 446 l 1
 215 446 l 1
 215 10 l 1
 158 0 l 1
 158 446 l 1
 20 446 l 1
 20 502 l 1
 158 502 l 1
 158 661 l 1
 215 671 l 1
 215 502 l 1
 353 502 l 1
189 -19 m 1
 259 -58 l 1
 166 -224 l 1
 117 -196 l 1
 171 -100 l 1
 132 -78 l 1
 189 -19 l 1
EndSplineSet
EndChar
StartChar: Tcaron
Encoding: 356 356 126
Width: 522
Flags: MW
HStem: 0 21G<225 225> 625 56<10 225 10 512 282 282 282 512> 861 20G<373 373>
VStem: 225 57<10 625 10 625 10 625>
LayerCount: 2
Back
Fore
SplineSet
225 0 m 1
 225 625 l 1
 10 625 l 1
 10 681 l 1
 512 681 l 1
 512 625 l 1
 282 625 l 1
 282 10 l 1
 225 0 l 1
373 881 m 1
 406 838 l 1
 256 718 l 1
 127 840 l 1
 163 880 l 1
 259 792 l 1
 373 881 l 1
EndSplineSet
EndChar
StartChar: tcaron
Encoding: 357 357 143
Width: 429
Flags: MW
HStem: 0 21G<158 158> 446 56<20 158 20 158 215 353> 717 20G<339 339>
VStem: 158 57<10 446 10 446 10 446 502 661 661 661>
LayerCount: 2
Back
Fore
SplineSet
339 737 m 1
 409 698 l 1
 316 532 l 1
 267 560 l 1
 321 656 l 1
 282 678 l 1
 339 737 l 1
353 502 m 1
 353 446 l 1
 215 446 l 1
 215 10 l 1
 158 0 l 1
 158 446 l 1
 20 446 l 1
 20 502 l 1
 158 502 l 1
 158 661 l 1
 215 671 l 1
 215 502 l 1
 353 502 l 1
EndSplineSet
EndChar
StartChar: Uring
Encoding: 366 366 173
Width: 684
Flags: MW
HStem: 0 49<243.5 444 243.5 470> 721 46<323.5 365 323.5 373.5> 893 47<341.5 379.5>
VStem: 66 56<345.5 492 345.5 494> 228 42<806.5 845.5 806.5 854.5> 435 41<815.5 850.5> 562 56<360.5 472.5>
LayerCount: 2
Back
Fore
SplineSet
342 0 m 0
 105 0 66 197 66 459 c 0
 66 529 67 640 68 670 c 1
 125 680 l 1
 124 658 122 534 122 450 c 0
 122 241 145 49 342 49 c 0
 546 49 562 260 562 431 c 0
 562 514 561 634 560 669 c 1
 616 680 l 1
 617 656 618 550 618 476 c 0
 618 245 598 0 342 0 c 0
342 721 m 0
 275 721 228 768 228 823 c 0
 228 886 288 940 362 940 c 0
 432 940 476 888 476 837 c 0
 476 763 405 721 342 721 c 0
359 893 m 0
 324 893 270 868 270 823 c 0
 270 790 303 767 344 767 c 0
 386 767 435 796 435 835 c 0
 435 866 400 893 359 893 c 0
EndSplineSet
EndChar
StartChar: uring
Encoding: 367 367 205
Width: 515
Flags: MW
HStem: -6 49<167 252.5 167 256> 563 47<255 289.5 255 303.5> 736 46<279 307>
VStem: 65 54<289 304.5> 156 42<647 681.5 647 697.5> 363 42<654.5 694> 394 56
LayerCount: 2
Back
Fore
SplineSet
270 563 m 0xfc
 201 563 156 615 156 666 c 0
 156 729 218 778 279 782 c 1
 344 782 405 747 405 680 c 0
 405 610 337 563 270 563 c 0xfc
288 736 m 0
 237 736 198 697 198 666 c 0
 198 628 238 610 272 610 c 0
 307 610 363 632 363 677 c 0
 363 711 326 736 288 736 c 0
119 289 m 0
 120 168 116 43 218 43 c 0
 287 43 358 92 379 116 c 0
 386 124 392 138 392 159 c 2
 397 494 l 1
 450 504 l 1
 450 10 l 1xfa
 388 0 l 1
 388 74 l 1
 363 36 295 -6 217 -6 c 0
 66 -6 65 143 65 283 c 0
 65 326 68 423 81 494 c 1
 136 504 l 1
 133 488 119 374 119 289 c 0
EndSplineSet
EndChar
StartChar: Uhungarumlaut
Encoding: 368 368 175
Width: 684
Flags: MW
HStem: 0 49<243.5 444 243.5 470> 873 20G<337 337 498 498>
VStem: 66 56<345.5 492 345.5 494> 562 56<360.5 472.5>
LayerCount: 2
Back
Fore
SplineSet
342 0 m 0
 105 0 66 197 66 459 c 0
 66 529 67 640 68 670 c 1
 125 680 l 1
 124 658 122 534 122 450 c 0
 122 241 145 49 342 49 c 0
 546 49 562 260 562 431 c 0
 562 514 561 634 560 669 c 1
 616 680 l 1
 617 656 618 550 618 476 c 0
 618 245 598 0 342 0 c 0
187 771 m 1
 337 893 l 1
 390 848 l 1
 228 736 l 1
 187 771 l 1
348 771 m 1
 498 893 l 1
 550 848 l 1
 388 736 l 1
 348 771 l 1
EndSplineSet
EndChar
StartChar: uhungarumlaut
Encoding: 369 369 207
Width: 538
Flags: MW
HStem: -6 49<168 253.5 168 257> 704 20G<260 260 420 420>
VStem: 66 54<289 311.5> 395 56
LayerCount: 2
Back
Fore
SplineSet
120 289 m 0
 121 168 117 43 219 43 c 0
 288 43 359 92 380 116 c 0
 387 124 393 138 393 159 c 2
 398 494 l 1
 451 504 l 1
 451 10 l 1
 389 0 l 1
 389 74 l 1
 364 36 296 -6 218 -6 c 0
 65 -6 66 147 66 289 c 0
 66 334 70 426 82 494 c 1
 137 504 l 1
 134 488 120 374 120 289 c 0
270 602 m 1
 420 724 l 1
 473 679 l 1
 311 567 l 1
 270 602 l 1
110 602 m 1
 260 724 l 1
 312 679 l 1
 150 567 l 1
 110 602 l 1
EndSplineSet
EndChar
StartChar: Zacute
Encoding: 377 377 129
Width: 621
Flags: MW
HStem: 0 61<73 562 118 551> 620 61<90 501 79 546> 873 20G<389 389>
LayerCount: 2
Back
Fore
SplineSet
73 0 m 1
 48 55 l 1
 501 620 l 1
 79 620 l 1
 90 681 l 1
 546 681 l 1
 571 626 l 1
 118 61 l 1
 562 61 l 1
 551 0 l 1
 73 0 l 1
239 771 m 1
 389 893 l 1
 442 848 l 1
 279 736 l 1
 239 771 l 1
EndSplineSet
EndChar
StartChar: zacute
Encoding: 378 378 144
Width: 453
Flags: MW
HStem: 0 56<105 406 52 416> 446 56<62 348 52 401> 704 20G<288 288>
LayerCount: 2
Back
Fore
SplineSet
406 0 m 1
 52 0 l 1
 30 46 l 1
 348 446 l 1
 52 446 l 1
 62 502 l 1
 401 502 l 1
 423 457 l 1
 105 56 l 1
 416 56 l 1
 406 0 l 1
138 602 m 1
 288 724 l 1
 341 679 l 1
 178 567 l 1
 138 602 l 1
EndSplineSet
EndChar
StartChar: Zdotaccent
Encoding: 379 379 132
Width: 621
Flags: MW
HStem: 0 61<73 562 118 551> 620 61<90 501 79 546> 800 20G<351 351>
LayerCount: 2
Back
Fore
SplineSet
73 0 m 1
 48 55 l 1
 501 620 l 1
 79 620 l 1
 90 681 l 1
 546 681 l 1
 571 626 l 1
 118 61 l 1
 562 61 l 1
 551 0 l 1
 73 0 l 1
351 820 m 1
 343 738 l 1
 269 728 l 1
 278 810 l 1
 351 820 l 1
EndSplineSet
EndChar
StartChar: zdotaccent
Encoding: 380 380 147
Width: 453
Flags: MW
HStem: 0 56<105 406 52 416> 446 56<62 348 52 401> 643 20G<281 281>
LayerCount: 2
Back
Fore
SplineSet
406 0 m 1
 52 0 l 1
 30 46 l 1
 348 446 l 1
 52 446 l 1
 62 502 l 1
 401 502 l 1
 423 457 l 1
 105 56 l 1
 416 56 l 1
 406 0 l 1
281 663 m 1
 273 581 l 1
 199 571 l 1
 208 653 l 1
 281 663 l 1
EndSplineSet
EndChar
StartChar: Zcaron
Encoding: 381 381 131
Width: 621
Flags: MW
HStem: 0 61<73 562 118 551> 620 61<90 501 79 546> 861 20G<425 425>
LayerCount: 2
Back
Fore
SplineSet
73 0 m 1
 48 55 l 1
 501 620 l 1
 79 620 l 1
 90 681 l 1
 546 681 l 1
 571 626 l 1
 118 61 l 1
 562 61 l 1
 551 0 l 1
 73 0 l 1
425 881 m 1
 458 838 l 1
 308 718 l 1
 179 840 l 1
 215 880 l 1
 311 792 l 1
 425 881 l 1
EndSplineSet
EndChar
StartChar: zcaron
Encoding: 382 382 146
Width: 453
Flags: MW
HStem: 0 56<105 406 52 416> 446 56<62 348 52 401> 692 20G<352 352>
LayerCount: 2
Back
Fore
SplineSet
406 0 m 1
 52 0 l 1
 30 46 l 1
 348 446 l 1
 52 446 l 1
 62 502 l 1
 401 502 l 1
 423 457 l 1
 105 56 l 1
 416 56 l 1
 406 0 l 1
352 712 m 1
 385 669 l 1
 235 549 l 1
 106 671 l 1
 142 711 l 1
 238 623 l 1
 352 712 l 1
EndSplineSet
EndChar
StartChar: caron
Encoding: 711 711 139
Width: 500
Flags: MW
HStem: 549 21G<239 239> 692 20G<356 356>
LayerCount: 2
Back
Fore
SplineSet
356 712 m 1
 389 669 l 1
 239 549 l 1
 110 671 l 1
 146 711 l 1
 242 623 l 1
 356 712 l 1
EndSplineSet
EndChar
StartChar: breve
Encoding: 728 728 117
Width: 500
Flags: MW
HStem: 559 46<237.5 286.5> 663 20G<366 366>
LayerCount: 2
Back
Fore
SplineSet
256 605 m 0
 319 605 348 634 366 683 c 1
 397 652 l 1
 378 597 318 559 255 559 c 0
 185 559 127 595 103 648 c 1
 133 678 l 1
 167 617 219 605 256 605 c 0
EndSplineSet
EndChar
StartChar: dotaccent
Encoding: 729 729 211
Width: 500
Flags: MW
HStem: 547 21G<209 209> 619 20G<291 291>
LayerCount: 2
Back
Fore
SplineSet
291 639 m 1
 283 557 l 1
 209 547 l 1
 218 629 l 1
 291 639 l 1
EndSplineSet
EndChar
StartChar: ogonek
Encoding: 731 731 134
Width: 500
Flags: MW
HStem: -201 43<235 268 235 272.5> 23 20G<262 262>
VStem: 149 42<-118 -79 -118 -70>
LayerCount: 2
Back
Fore
SplineSet
326 -127 m 1
 350 -159 l 1
 333 -180 293 -201 252 -201 c 0
 193 -201 149 -158 149 -100 c 0
 149 -40 203 10 246 34 c 2
 262 43 l 1
 285 12 l 1
 254 -11 l 2
 229 -30 191 -57 191 -101 c 0
 191 -135 218 -158 252 -158 c 0
 284 -158 303 -145 326 -127 c 1
EndSplineSet
EndChar
StartChar: hungarumlaut
Encoding: 733 733 145
Width: 500
Flags: MW
HStem: 567 21G<108 108 269 269> 704 20G<218 218 378 378>
LayerCount: 2
Back
Fore
SplineSet
228 602 m 1
 378 724 l 1
 431 679 l 1
 269 567 l 1
 228 602 l 1
68 602 m 1
 218 724 l 1
 270 679 l 1
 108 567 l 1
 68 602 l 1
EndSplineSet
EndChar
StartChar: endash
Encoding: 8211 8211 92
Width: 596
Flags: MW
HStem: 222 54<81 516 71 527>
LayerCount: 2
Back
Fore
SplineSet
516 222 m 1
 71 222 l 1
 81 276 l 1
 527 276 l 1
 516 222 l 1
EndSplineSet
EndChar
StartChar: emdash
Encoding: 8212 8212 73
Width: 877
Flags: MW
HStem: 222 56<81 798 71 808>
LayerCount: 2
Back
Fore
SplineSet
798 222 m 1
 71 222 l 1
 81 278 l 1
 808 278 l 1
 798 222 l 1
EndSplineSet
EndChar
StartChar: quoteleft
Encoding: 8216 8216 84
Width: 182
Flags: MW
HStem: 544 21G<90 90> 729 20G<113 113>
LayerCount: 2
Back
Fore
SplineSet
90 544 m 1
 20 583 l 1
 113 749 l 1
 162 721 l 1
 108 625 l 1
 147 603 l 1
 90 544 l 1
EndSplineSet
EndChar
StartChar: quoteright
Encoding: 8217 8217 67
Width: 182
Flags: MW
HStem: 544 21G<69 69> 729 20G<92 92>
LayerCount: 2
Back
Fore
SplineSet
92 749 m 1
 162 710 l 1
 69 544 l 1
 20 572 l 1
 74 668 l 1
 35 690 l 1
 92 749 l 1
EndSplineSet
EndChar
StartChar: quotedblleft
Encoding: 8220 8220 91
Width: 348
Flags: MW
HStem: 544 21G<90 90 256 256> 729 20G<113 113 279 279>
LayerCount: 2
Back
Fore
SplineSet
256 544 m 1
 186 583 l 1
 279 749 l 1
 328 721 l 1
 274 625 l 1
 313 603 l 1
 256 544 l 1
90 544 m 1
 20 583 l 1
 113 749 l 1
 162 721 l 1
 108 625 l 1
 147 603 l 1
 90 544 l 1
EndSplineSet
EndChar
StartChar: quotedblright
Encoding: 8221 8221 66
Width: 348
Flags: MW
HStem: 544 21G<69 69 235 235> 729 20G<92 92 258 258>
LayerCount: 2
Back
Fore
SplineSet
92 749 m 1
 162 710 l 1
 69 544 l 1
 20 572 l 1
 74 668 l 1
 35 690 l 1
 92 749 l 1
258 749 m 1
 328 710 l 1
 235 544 l 1
 186 572 l 1
 240 668 l 1
 201 690 l 1
 258 749 l 1
EndSplineSet
EndChar
StartChar: bullet
Encoding: 8226 8226 78
Width: 378
Flags: MW
HStem: 164 178<165.5 214.5>
VStem: 101 177<228.5 277.5>
LayerCount: 2
Back
Fore
SplineSet
278 253 m 0
 278 204 239 164 190 164 c 0
 141 164 101 204 101 253 c 0
 101 302 141 342 190 342 c 0
 239 342 278 302 278 253 c 0
EndSplineSet
EndChar
StartChar: ellipsis
Encoding: 8230 8230 69
Width: 734
Flags: MW
HStem: 0 21G<69 69 325 325 581 581> 72 20G<151 151 407 407 663 663>
LayerCount: 2
Back
Fore
SplineSet
151 92 m 1
 143 10 l 1
 69 0 l 1
 78 82 l 1
 151 92 l 1
663 92 m 1
 655 10 l 1
 581 0 l 1
 590 82 l 1
 663 92 l 1
407 92 m 1
 399 10 l 1
 325 0 l 1
 334 82 l 1
 407 92 l 1
EndSplineSet
EndChar
StartChar: guilsinglleft
Encoding: 8249 8249 110
Width: 404
Flags: MW
HStem: 64 21G<277 277> 420 20G<295 295>
LayerCount: 2
Back
Fore
SplineSet
277 64 m 1
 72 250 l 1
 295 440 l 1
 330 400 l 1
 153 249 l 1
 313 104 l 1
 277 64 l 1
EndSplineSet
EndChar
StartChar: guilsinglright
Encoding: 8250 8250 64
Width: 404
Flags: MW
HStem: 66 21G<129 129> 422 20G<111 111>
LayerCount: 2
Back
Fore
SplineSet
129 66 m 1
 92 106 l 1
 252 251 l 1
 76 402 l 1
 111 442 l 1
 334 252 l 1
 129 66 l 1
EndSplineSet
EndChar
StartChar: Euro
Encoding: 8364 8364 75
Width: 663
Flags: MW
HStem: 0 54<363.5 446.5 363.5 454> 261 57<71 141 71 142 61 141 195 195 195 419> 385 57<71 150 61 166 71 204 222 440> 637 54<383 461>
VStem: 142 53<261 261>
LayerCount: 2
Back
Fore
SplineSet
423 0 m 0
 281 0 151 121 142 261 c 1
 61 261 l 1
 71 318 l 1
 141 318 l 1
 142 342 146 365 150 385 c 1
 61 385 l 1
 71 442 l 1
 166 442 l 1
 187 514 285 691 435 691 c 0
 500 691 557 669 600 630 c 1
 561 594 l 1
 533 617 492 637 430 637 c 0
 336 637 250 519 222 442 c 1
 450 442 l 1
 440 385 l 1
 204 385 l 1
 198 361 195 339 193 318 c 1
 430 318 l 1
 419 261 l 1
 195 261 l 1
 203 160 310 54 417 54 c 0
 476 54 519 68 553 89 c 1
 592 51 l 1
 546 19 485 0 423 0 c 0
EndSplineSet
EndChar
StartChar: trademark
Encoding: 8482 8482 97
Width: 559
Flags: MW
HStem: 460 21G<252 252 408 408> 645 46<5 130 5 293 176 293 176 176> 672 20G<540 540>
VStem: 130 46<471 645 471 645 471 645>
LayerCount: 2
Back
Fore
SplineSet
540 692 m 1xb0
 610 469 l 1
 565 461 l 1
 515 617 l 1
 460 470 l 1
 408 460 l 1
 367 619 l 1
 306 470 l 1
 252 460 l 1
 343 682 l 1
 396 691 l 1xd0
 436 535 l 1
 490 683 l 1
 540 692 l 1xb0
293 691 m 1xb0
 293 645 l 1
 176 645 l 1
 176 471 l 1
 130 461 l 1
 130 645 l 1
 5 645 l 1
 5 691 l 1
 293 691 l 1xb0
EndSplineSet
EndChar
StartChar: .notdef
Encoding: 65536 -1 0
Width: 500
Flags: MW
HStem: 0 40<75 409 75 480> 641 40<86 86 86 420>
VStem: 18 40<87 610 87 681> 440 40<66 599 599 599>
LayerCount: 2
Back
Fore
SplineSet
18 681 m 1
 480 681 l 1
 480 0 l 1
 18 0 l 1
 18 681 l 1
271 340 m 1
 440 66 l 1
 440 599 l 1
 271 340 l 1
247 303 m 1
 75 40 l 1
 409 40 l 1
 247 303 l 1
86 641 m 1
 248 378 l 1
 420 641 l 1
 86 641 l 1
224 341 m 1
 58 610 l 1
 58 87 l 1
 224 341 l 1
EndSplineSet
EndChar
